<svg width="24" height="24" viewBox="0 0 24 24" fill="none" xmlns="http://www.w3.org/2000/svg">
<g clip-path="url(#clip0_49_466)">
<path d="M19.8403 17.3377C19.5356 18.0415 19.175 18.6894 18.7572 19.285C18.1877 20.097 17.7214 20.659 17.3621 20.9711C16.805 21.4834 16.2081 21.7458 15.569 21.7607C15.1101 21.7607 14.5568 21.6302 13.9127 21.3653C13.2664 21.1017 12.6726 20.9711 12.1295 20.9711C11.56 20.9711 10.9492 21.1017 10.2959 21.3653C9.64161 21.6302 9.1145 21.7682 8.71149 21.7819C8.09858 21.808 7.48767 21.5382 6.87787 20.9711C6.48866 20.6317 6.00185 20.0497 5.41866 19.2253C4.79294 18.3449 4.27852 17.324 3.87551 16.1602C3.4439 14.903 3.22754 13.6856 3.22754 12.5071C3.22754 11.1571 3.51926 9.99267 4.10356 9.01692C4.56278 8.23316 5.17369 7.61491 5.9383 7.16104C6.70291 6.70718 7.52907 6.47589 8.41878 6.46109C8.9056 6.46109 9.54399 6.61168 10.3373 6.90762C11.1284 7.20457 11.6364 7.35515 11.8591 7.35515C12.0256 7.35515 12.5899 7.17907 13.5465 6.82804C14.4511 6.5025 15.2146 6.36771 15.8401 6.42081C17.5349 6.55759 18.8082 7.2257 19.655 8.42938C18.1392 9.34781 17.3894 10.6342 17.4043 12.2844C17.418 13.5698 17.8843 14.6394 18.8008 15.4887C19.2161 15.8829 19.6799 16.1875 20.1959 16.4039C20.084 16.7284 19.9659 17.0393 19.8403 17.3377ZM15.9532 2.0418C15.9532 3.04928 15.5851 3.98995 14.8515 4.86062C13.9661 5.89569 12.8953 6.4938 11.734 6.39942C11.7192 6.27855 11.7106 6.15135 11.7106 6.01767C11.7106 5.0505 12.1317 4.01544 12.8794 3.16913C13.2526 2.74063 13.7274 2.38434 14.3031 2.10012C14.8776 1.82014 15.421 1.66531 15.9321 1.63879C15.947 1.77348 15.9532 1.90817 15.9532 2.04179V2.0418Z" fill="#D0ABFD"/>
</g>
<defs>
<clipPath id="clip0_49_466">
<rect width="21.0207" height="21.0207" fill="white" transform="translate(1.2002 1.20056)"/>
</clipPath>
</defs>
</svg>
