<svg width="1084" height="424" viewBox="0 0 1084 424" fill="none" xmlns="http://www.w3.org/2000/svg">
<g opacity="0.2" filter="url(#filter0_f_49_804)">
<path d="M212.5 12.0005C322.957 12.0005 412.5 101.544 412.5 212C412.5 322.457 322.957 412 212.5 412C102.043 412 12.5 322.457 12.5 212C12.5 101.544 102.043 12.0005 212.5 12.0005ZM118.133 108C115.924 108 114.133 109.791 114.133 112V320C114.133 322.21 115.924 324 118.133 324H176.944C179.465 324 181.368 321.72 180.906 319.242C178.391 305.74 171.379 266.019 169.411 232.835C183.429 259.687 211.534 278.017 243.922 278.017C290.314 278.017 327.922 240.409 327.922 194.017C327.922 147.625 290.314 110.017 243.922 110.017C215.699 110.017 190.726 123.935 175.495 145.283C177.635 130.937 179.754 119.025 180.912 112.761C181.37 110.285 179.469 108.001 176.95 108H118.133Z" fill="white"/>
<path d="M506.598 330H464.94V171.259H506.598V330ZM485.769 143.802C478.826 143.802 472.83 141.488 467.781 136.859C462.942 132.02 460.522 126.234 460.522 119.502C460.522 112.349 462.942 106.458 467.781 101.829C472.83 97.2002 478.826 94.8859 485.769 94.8859C492.923 94.8859 498.919 97.3054 503.758 102.144C508.597 106.773 511.017 112.559 511.017 119.502C511.017 126.234 508.597 132.02 503.758 136.859C498.919 141.488 492.923 143.802 485.769 143.802ZM680.496 280.453L702.587 306.016C694.592 315.063 684.283 322.216 671.659 327.476C659.246 332.525 645.465 335.05 630.317 335.05C612.013 335.05 595.918 331.473 582.032 324.32C568.146 317.166 557.311 307.278 549.526 294.654C541.741 282.031 537.849 267.408 537.849 250.787C537.849 234.166 541.531 219.544 548.895 206.92C556.469 194.086 566.673 184.093 579.507 176.939C592.551 169.786 607.174 166.209 623.374 166.209C639.154 166.209 653.145 169.786 665.348 176.939C677.761 183.882 687.439 193.56 694.382 205.974C701.325 218.387 704.796 232.799 704.796 249.209V251.103H664.085V246.685C664.085 237.007 662.297 228.591 658.72 221.438C655.354 214.284 650.62 208.709 644.519 204.711C638.628 200.714 631.579 198.715 623.374 198.715C614.748 198.715 607.174 200.819 600.652 205.027C594.129 209.024 588.975 214.915 585.188 222.7C581.611 230.274 579.823 239.321 579.823 249.841C579.823 260.991 582.032 270.564 586.45 278.559C591.079 286.344 597.285 292.34 605.07 296.548C613.065 300.545 622.217 302.544 632.526 302.544C651.462 302.544 667.451 295.18 680.496 280.453ZM704.796 263.411H564.674V236.901H699.747L704.796 249.209V263.411ZM860.493 277.613L886.372 302.86C878.166 313.169 868.172 321.164 856.39 326.845C844.819 332.315 831.564 335.05 816.626 335.05C800.215 335.05 785.488 331.473 772.443 324.32C759.399 316.956 749.09 306.962 741.516 294.339C734.152 281.505 730.47 266.988 730.47 250.787C730.47 234.377 734.257 219.86 741.831 207.236C749.405 194.402 759.715 184.408 772.759 177.255C786.014 169.891 800.952 166.209 817.573 166.209C832.09 166.209 845.134 169.05 856.706 174.73C868.278 180.2 878.166 187.985 886.372 198.084L860.493 223.647C856.075 216.914 850.394 211.444 843.451 207.236C836.719 203.028 828.829 200.924 819.782 200.924C810.735 200.924 802.74 203.028 795.797 207.236C788.854 211.444 783.384 217.335 779.386 224.909C775.389 232.483 773.39 241.109 773.39 250.787C773.39 260.255 775.389 268.776 779.386 276.35C783.384 283.924 788.854 289.815 795.797 294.023C802.74 298.231 810.735 300.335 819.782 300.335C829.039 300.335 837.034 298.231 843.767 294.023C850.499 289.815 856.075 284.345 860.493 277.613ZM1046.01 280.453L1068.1 306.016C1060.11 315.063 1049.8 322.216 1037.18 327.476C1024.76 332.525 1010.98 335.05 995.834 335.05C977.53 335.05 961.435 331.473 947.549 324.32C933.663 317.166 922.828 307.278 915.043 294.654C907.259 282.031 903.366 267.408 903.366 250.787C903.366 234.166 907.048 219.544 914.412 206.92C921.986 194.086 932.19 184.093 945.024 176.939C958.069 169.786 972.691 166.209 988.891 166.209C1004.67 166.209 1018.66 169.786 1030.86 176.939C1043.28 183.882 1052.96 193.56 1059.9 205.974C1066.84 218.387 1070.31 232.799 1070.31 249.209V251.103H1029.6V246.685C1029.6 237.007 1027.81 228.591 1024.24 221.438C1020.87 214.284 1016.14 208.709 1010.04 204.711C1004.14 200.714 997.097 198.715 988.891 198.715C980.265 198.715 972.691 200.819 966.169 205.027C959.647 209.024 954.492 214.915 950.705 222.7C947.128 230.274 945.34 239.321 945.34 249.841C945.34 260.991 947.549 270.564 951.967 278.559C956.596 286.344 962.803 292.34 970.587 296.548C978.582 300.545 987.734 302.544 998.044 302.544C1016.98 302.544 1032.97 295.18 1046.01 280.453ZM1070.31 263.411H930.192V236.901H1065.26L1070.31 249.209V263.411Z" fill="white"/>
</g>
<defs>
<filter id="filter0_f_49_804" x="0.549235" y="0.0497236" width="1094.9" height="423.902" filterUnits="userSpaceOnUse" color-interpolation-filters="sRGB">
<feFlood flood-opacity="0" result="BackgroundImageFix"/>
<feBlend mode="normal" in="SourceGraphic" in2="BackgroundImageFix" result="shape"/>
<feGaussianBlur stdDeviation="5.97538" result="effect1_foregroundBlur_49_804"/>
</filter>
</defs>
</svg>
