<svg width="32" height="33" viewBox="0 0 32 33" fill="none" xmlns="http://www.w3.org/2000/svg">
<path d="M19.6178 7.65818C19.804 7.84434 19.8486 8.09712 19.7953 8.32179C19.7423 8.54482 19.5907 8.75155 19.3679 8.85557C19.034 9.01123 18.7226 9.22602 18.4488 9.49984C17.136 10.8125 17.1811 12.9996 18.5668 14.3854C19.9526 15.7711 22.1397 15.8161 23.4524 14.5034C23.7262 14.2296 23.941 13.9182 24.0966 13.5843C24.2006 13.3615 24.4074 13.2099 24.6304 13.1569C24.8551 13.1036 25.1079 13.1482 25.294 13.3344L27.9754 16.0157C28.242 16.2823 28.2406 16.7198 27.9526 16.9611C27.1603 17.624 25.3741 19.1359 23.683 20.6727C24.5127 20.771 25.3268 21.1453 25.9742 21.7927C27.4522 23.2708 27.5125 25.6212 26.0916 27.0422C24.6706 28.4631 22.3202 28.4028 20.8421 26.9248C20.1946 26.2772 19.821 25.4627 19.7228 24.6329C18.1858 26.3242 16.6735 28.1108 16.0105 28.9032C15.7692 29.1912 15.3317 29.1925 15.0651 28.9259L12.3838 26.2446C12.1977 26.0585 12.1531 25.8056 12.2063 25.581C12.2593 25.3579 12.4109 25.1512 12.6338 25.0472C12.9676 24.8915 13.2791 24.6768 13.5529 24.4029C14.8656 23.0903 14.8205 20.9032 13.4348 19.5174C12.049 18.1317 9.86197 18.0866 8.54926 19.3993C8.27544 19.6732 8.06065 19.9846 7.90499 20.3184C7.80097 20.5412 7.59425 20.6929 7.37121 20.7459C7.14654 20.7992 6.89376 20.7546 6.70761 20.5684L4.02419 17.885C3.75766 17.6184 3.75899 17.1809 4.04698 16.9397C4.83909 16.2768 6.62435 14.7646 8.31517 13.228C7.4865 13.1292 6.67343 12.756 6.02674 12.1094C4.54866 10.6313 4.48769 8.2802 5.90866 6.85924C7.32962 5.43827 9.68071 5.49924 11.1588 6.97732C11.8052 7.62385 12.1792 8.4366 12.2781 9.26506C13.8145 7.57445 15.3264 5.78955 15.9891 4.99756C16.2303 4.70957 16.6678 4.70824 16.9344 4.97477L19.6178 7.65818Z" fill="#6F00FB" stroke="#6F00FB" stroke-width="0.257041" stroke-linejoin="round"/>
</svg>
