<svg width="24" height="25" viewBox="0 0 24 25" fill="none" xmlns="http://www.w3.org/2000/svg">
<path fill-rule="evenodd" clip-rule="evenodd" d="M6.52736 3.35156C5.43296 3.35156 4.38337 3.7862 3.60937 4.55991C2.83536 5.33361 2.40032 6.38304 2.3999 7.47743V18.484C2.3999 19.5787 2.83476 20.6285 3.60881 21.4025C4.38285 22.1766 5.43269 22.6114 6.52736 22.6114H17.5339C18.6283 22.611 19.6777 22.176 20.4514 21.402C21.2251 20.628 21.6598 19.5784 21.6598 18.484V7.47743C21.6594 6.38331 21.2245 5.33413 20.4509 4.56047C19.6772 3.78681 18.628 3.35198 17.5339 3.35156H6.52736ZM18.7211 7.48377C18.7211 7.79906 18.5959 8.10143 18.3729 8.32437C18.15 8.54731 17.8476 8.67256 17.5323 8.67256C17.217 8.67256 16.9147 8.54731 16.6917 8.32437C16.4688 8.10143 16.3435 7.79906 16.3435 7.48377C16.3435 7.16849 16.4688 6.86612 16.6917 6.64318C16.9147 6.42024 17.217 6.29499 17.5323 6.29499C17.8476 6.29499 18.15 6.42024 18.3729 6.64318C18.5959 6.86612 18.7211 7.16849 18.7211 7.48377ZM12.0322 9.68382C11.1578 9.68382 10.3193 10.0312 9.70096 10.6495C9.08268 11.2677 8.73533 12.1063 8.73533 12.9807C8.73533 13.8551 9.08268 14.6937 9.70096 15.312C10.3193 15.9303 11.1578 16.2776 12.0322 16.2776C12.9066 16.2776 13.7452 15.9303 14.3635 15.312C14.9818 14.6937 15.3291 13.8551 15.3291 12.9807C15.3291 12.1063 14.9818 11.2677 14.3635 10.6495C13.7452 10.0312 12.9066 9.68382 12.0322 9.68382ZM7.1487 12.9807C7.1487 11.6859 7.66304 10.4442 8.57858 9.52866C9.49412 8.61312 10.7359 8.09877 12.0306 8.09877C13.3254 8.09877 14.5671 8.61312 15.4827 9.52866C16.3982 10.4442 16.9126 11.6859 16.9126 12.9807C16.9126 14.2755 16.3982 15.5172 15.4827 16.4328C14.5671 17.3483 13.3254 17.8626 12.0306 17.8626C10.7359 17.8626 9.49412 17.3483 8.57858 16.4328C7.66304 15.5172 7.1487 14.2755 7.1487 12.9807Z" fill="#909599"/>
</svg>
