<svg width="24" height="25" viewBox="0 0 24 25" fill="none" xmlns="http://www.w3.org/2000/svg">
<path d="M13.1904 3.27832C11.1084 2.9498 8.97651 3.32273 7.12988 4.33887C5.28315 5.35511 3.82685 6.95685 2.99023 8.8916C2.1537 10.8263 1.98438 12.9839 2.50879 15.0254C3.03323 17.0668 4.22139 18.876 5.88672 20.168C7.55217 21.4598 9.60025 22.1617 11.708 22.1621C12.8351 22.1638 13.9485 21.9645 14.9961 21.5781C15.2178 21.4964 15.4554 21.4633 15.6895 21.4961L20.3027 22.1445C20.7495 22.207 21.1268 21.8154 21.0479 21.3711L20.3184 17.2656C20.2691 16.9883 20.3117 16.7027 20.4238 16.4443C21.0603 14.978 21.3203 13.3669 21.167 11.7598C20.9668 9.66147 20.0748 7.68885 18.6309 6.15332C17.1869 4.61779 15.2725 3.6069 13.1904 3.27832ZM8.67773 13.001L9.20312 13.9111C9.70421 14.7774 10.6383 15.3562 11.707 15.3564C12.7091 15.3564 13.5912 14.8488 14.1123 14.0693L14.2119 13.9102L14.7373 13.001L14.8711 12.7705L15.1006 12.9043L16.9209 13.957L17.1514 14.0898L17.0176 14.3193L16.4912 15.2295V15.2285C16.0064 16.0682 15.3093 16.7662 14.4697 17.251C13.6302 17.7357 12.6774 17.9901 11.708 17.9902L11.707 17.9912C10.7377 17.9914 9.78495 17.7364 8.94531 17.252C8.10569 16.7674 7.40781 16.0699 6.92285 15.2305L6.39648 14.3193L6.26465 14.0898L6.49414 13.957L8.31445 12.9043L8.54395 12.7705L8.67773 13.001ZM7.15234 15.0977C7.20996 15.1974 7.27117 15.2952 7.33496 15.3906C7.39603 15.4819 7.46084 15.5711 7.52734 15.6582C7.39131 15.48 7.26617 15.293 7.15332 15.0977H7.15234ZM14.4414 14.0439L14.333 14.2178C14.371 14.161 14.408 14.1033 14.4424 14.0439L14.9678 13.1338L14.4414 14.0439Z" fill="#909599"/>
</svg>
