<svg width="53" height="52" viewBox="0 0 53 52" fill="none" xmlns="http://www.w3.org/2000/svg">
<rect x="1.80059" y="1.19731" width="49.6" height="49.6" rx="24.6592" stroke="#6F00FB" stroke-width="2.4"/>
<path d="M32.7568 34.7693H20.7328V32.1773L27.2128 26.4173C27.9808 25.6973 28.5568 25.0413 28.9408 24.4493C29.3248 23.8573 29.5168 23.2413 29.5168 22.6013C29.5168 22.0893 29.3968 21.6333 29.1568 21.2333C28.9168 20.8173 28.5808 20.4973 28.1488 20.2733C27.7168 20.0333 27.2208 19.9133 26.6608 19.9133C25.8928 19.9133 25.1568 20.1373 24.4528 20.5853C23.7488 21.0173 23.1088 21.6733 22.5328 22.5533L20.4448 20.4893C21.2608 19.4333 22.1968 18.6253 23.2528 18.0653C24.3088 17.5053 25.4928 17.2253 26.8048 17.2253C28.0048 17.2253 29.0368 17.4573 29.9008 17.9213C30.7808 18.3853 31.4608 19.0173 31.9408 19.8173C32.4208 20.6173 32.6608 21.5373 32.6608 22.5773C32.6608 23.2973 32.5088 24.0013 32.2048 24.6893C31.9168 25.3773 31.4688 26.0733 30.8608 26.7773C30.2528 27.4813 29.4768 28.2333 28.5328 29.0333C28.1968 29.3533 27.8128 29.7053 27.3808 30.0893C26.9488 30.4573 26.5088 30.8253 26.0608 31.1933C25.6288 31.5453 25.2368 31.8733 24.8848 32.1773H32.7568V34.7693Z" fill="#6F00FB"/>
</svg>
