<svg width="52" height="52" viewBox="0 0 52 52" fill="none" xmlns="http://www.w3.org/2000/svg">
<rect x="1.2" y="1.19731" width="49.6" height="49.6" rx="24.6592" stroke="#6C7073" stroke-width="2.4"/>
<path d="M21.5206 30.1973C22.0486 30.9653 22.6646 31.5733 23.3686 32.0213C24.0886 32.4693 24.9126 32.6933 25.8406 32.6933C26.4966 32.6933 27.0806 32.5413 27.5926 32.2373C28.1046 31.9333 28.5046 31.5173 28.7926 30.9893C29.0966 30.4613 29.2486 29.8693 29.2486 29.2133C29.2486 28.5733 29.1126 28.0133 28.8406 27.5333C28.5686 27.0373 28.1846 26.6533 27.6886 26.3813C27.1926 26.0933 26.6246 25.9493 25.9846 25.9493C25.2966 25.9493 24.6806 26.1013 24.1366 26.4053C23.5926 26.6933 23.1286 27.1173 22.7446 27.6773L21.6646 27.6053C21.8086 26.7733 22.0966 26.0373 22.5286 25.3973C22.9766 24.7573 23.5446 24.2613 24.2326 23.9093C24.9366 23.5413 25.7446 23.3573 26.6566 23.3573C27.7926 23.3573 28.7926 23.6133 29.6566 24.1253C30.5366 24.6213 31.2166 25.3093 31.6966 26.1893C32.1926 27.0693 32.4406 28.0773 32.4406 29.2133C32.4406 30.4133 32.1526 31.4773 31.5766 32.4053C31.0166 33.3333 30.2406 34.0613 29.2486 34.5893C28.2726 35.1173 27.1686 35.3813 25.9366 35.3813C24.6086 35.3813 23.3926 35.1253 22.2886 34.6133C21.2006 34.0853 20.2486 33.2933 19.4326 32.2373L21.5206 30.1973ZM31.4806 20.4293H22.3606L23.8006 18.8453L22.7446 27.6773H19.9846L21.1606 17.8373H31.4806V20.4293Z" fill="#6C7073"/>
</svg>
