<svg width="52" height="52" viewBox="0 0 52 52" fill="none" xmlns="http://www.w3.org/2000/svg">
<rect x="1" y="0.997314" width="50" height="50" rx="24.8592" stroke="#6C7073" stroke-width="2"/>
<path d="M26.0002 34.9612C24.5762 34.9612 23.3522 34.6092 22.3282 33.9052C21.3042 33.2012 20.5202 32.1852 19.9762 30.8572C19.4322 29.5132 19.1602 27.8972 19.1602 26.0092C19.1602 23.1612 19.7682 20.9532 20.9842 19.3852C22.2002 17.8172 23.8722 17.0332 26.0002 17.0332C28.1442 17.0332 29.8162 17.8172 31.0162 19.3852C32.2322 20.9532 32.8402 23.1612 32.8402 26.0092C32.8402 27.8972 32.5682 29.5132 32.0242 30.8572C31.4802 32.1852 30.6962 33.2012 29.6722 33.9052C28.6642 34.6092 27.4402 34.9612 26.0002 34.9612ZM26.0002 32.3212C27.1362 32.3212 28.0162 31.7932 28.6402 30.7372C29.2642 29.6652 29.5762 28.0892 29.5762 26.0092C29.5762 23.9132 29.2642 22.3372 28.6402 21.2812C28.0162 20.2092 27.1362 19.6732 26.0002 19.6732C24.8802 19.6732 24.0082 20.2092 23.3842 21.2812C22.7602 22.3372 22.4482 23.9132 22.4482 26.0092C22.4482 28.0892 22.7602 29.6652 23.3842 30.7372C24.0082 31.7932 24.8802 32.3212 26.0002 32.3212Z" fill="#6C7073"/>
</svg>
