<svg  viewBox="0 0 24 24" fill="none" xmlns="http://www.w3.org/2000/svg">
<path d="M13.1904 2.32715C11.1084 1.99863 8.97651 2.37156 7.12988 3.3877C5.28315 4.40394 3.82685 6.00568 2.99023 7.94043C2.1537 9.87508 1.98438 12.0327 2.50879 14.0742C3.03323 16.1156 4.22139 17.9249 5.88672 19.2168C7.55217 20.5087 9.60025 21.2105 11.708 21.2109C12.8351 21.2127 13.9485 21.0133 14.9961 20.627C15.2178 20.5452 15.4554 20.5121 15.6895 20.5449L20.3027 21.1934C20.7495 21.2558 21.1268 20.8642 21.0479 20.4199L20.3184 16.3145C20.2691 16.0371 20.3117 15.7516 20.4238 15.4932C21.0603 14.0268 21.3203 12.4157 21.167 10.8086C20.9668 8.71029 20.0748 6.73768 18.6309 5.20215C17.1869 3.66662 15.2725 2.65573 13.1904 2.32715ZM8.67773 12.0498L9.20312 12.96C9.70421 13.8263 10.6383 14.405 11.707 14.4053C12.7091 14.4053 13.5912 13.8976 14.1123 13.1182L14.2119 12.959L14.7373 12.0498L14.8711 11.8193L15.1006 11.9531L16.9209 13.0059L17.1514 13.1387L17.0176 13.3682L16.4912 14.2783V14.2773C16.0064 15.117 15.3093 15.815 14.4697 16.2998C13.6302 16.7845 12.6774 17.0389 11.708 17.0391L11.707 17.04C10.7377 17.0402 9.78495 16.7852 8.94531 16.3008C8.10569 15.8162 7.40781 15.1187 6.92285 14.2793L6.39648 13.3682L6.26465 13.1387L6.49414 13.0059L8.31445 11.9531L8.54395 11.8193L8.67773 12.0498ZM7.15234 14.1465C7.20996 14.2462 7.27117 14.3441 7.33496 14.4395C7.39603 14.5308 7.46084 14.62 7.52734 14.707C7.39131 14.5289 7.26617 14.3418 7.15332 14.1465H7.15234ZM14.4414 13.0928L14.333 13.2666C14.371 13.2098 14.408 13.1521 14.4424 13.0928L14.9678 12.1826L14.4414 13.0928Z" fill="currentColor"/>
</svg>
