<svg width="180" height="180" viewBox="0 0 180 180" fill="none" xmlns="http://www.w3.org/2000/svg">
<g clip-path="url(#clip0_345_3658)">
<path d="M180 0H0V180H180V0Z" fill="#F4F6FA"/>
<path d="M52.6908 6.55466C53.9439 6.55466 54.9597 5.53884 54.9597 4.28575C54.9597 3.03267 53.9439 2.01685 52.6908 2.01685C51.4377 2.01685 50.4219 3.03267 50.4219 4.28575C50.4219 5.53884 51.4377 6.55466 52.6908 6.55466Z" fill="#6F00FB"/>
<path d="M64.7884 6.55466C66.0415 6.55466 67.0573 5.53884 67.0573 4.28575C67.0573 3.03267 66.0415 2.01685 64.7884 2.01685C63.5354 2.01685 62.5195 3.03267 62.5195 4.28575C62.5195 5.53884 63.5354 6.55466 64.7884 6.55466Z" fill="#6F00FB"/>
<path d="M76.89 6.55466C78.1431 6.55466 79.1589 5.53884 79.1589 4.28575C79.1589 3.03267 78.1431 2.01685 76.89 2.01685C75.6369 2.01685 74.6211 3.03267 74.6211 4.28575C74.6211 5.53884 75.6369 6.55466 76.89 6.55466Z" fill="#6F00FB"/>
<path d="M95.0423 6.55466C96.2954 6.55466 97.3113 5.53884 97.3113 4.28575C97.3113 3.03267 96.2954 2.01685 95.0423 2.01685C93.7893 2.01685 92.7734 3.03267 92.7734 4.28575C92.7734 5.53884 93.7893 6.55466 95.0423 6.55466Z" fill="#6F00FB"/>
<path d="M101.093 6.55466C102.346 6.55466 103.362 5.53884 103.362 4.28575C103.362 3.03267 102.346 2.01685 101.093 2.01685C99.84 2.01685 98.8242 3.03267 98.8242 4.28575C98.8242 5.53884 99.84 6.55466 101.093 6.55466Z" fill="#6F00FB"/>
<path d="M107.144 6.55466C108.397 6.55466 109.413 5.53884 109.413 4.28575C109.413 3.03267 108.397 2.01685 107.144 2.01685C105.891 2.01685 104.875 3.03267 104.875 4.28575C104.875 5.53884 105.891 6.55466 107.144 6.55466Z" fill="#6F00FB"/>
<path d="M113.195 6.55466C114.448 6.55466 115.464 5.53884 115.464 4.28575C115.464 3.03267 114.448 2.01685 113.195 2.01685C111.942 2.01685 110.926 3.03267 110.926 4.28575C110.926 5.53884 111.942 6.55466 113.195 6.55466Z" fill="#6F00FB"/>
<path d="M52.6908 12.6051C53.9439 12.6051 54.9597 11.5893 54.9597 10.3362C54.9597 9.08309 53.9439 8.06726 52.6908 8.06726C51.4377 8.06726 50.4219 9.08309 50.4219 10.3362C50.4219 11.5893 51.4377 12.6051 52.6908 12.6051Z" fill="#6F00FB"/>
<path d="M58.7377 12.6051C59.9907 12.6051 61.0066 11.5893 61.0066 10.3362C61.0066 9.08309 59.9907 8.06726 58.7377 8.06726C57.4846 8.06726 56.4688 9.08309 56.4688 10.3362C56.4688 11.5893 57.4846 12.6051 58.7377 12.6051Z" fill="#6F00FB"/>
<path d="M70.8392 12.6051C72.0923 12.6051 73.1081 11.5893 73.1081 10.3362C73.1081 9.08309 72.0923 8.06726 70.8392 8.06726C69.5861 8.06726 68.5703 9.08309 68.5703 10.3362C68.5703 11.5893 69.5861 12.6051 70.8392 12.6051Z" fill="#6F00FB"/>
<path d="M76.89 12.6051C78.1431 12.6051 79.1589 11.5893 79.1589 10.3362C79.1589 9.08309 78.1431 8.06726 76.89 8.06726C75.6369 8.06726 74.6211 9.08309 74.6211 10.3362C74.6211 11.5893 75.6369 12.6051 76.89 12.6051Z" fill="#6F00FB"/>
<path d="M101.093 12.6051C102.346 12.6051 103.362 11.5893 103.362 10.3362C103.362 9.08309 102.346 8.06726 101.093 8.06726C99.84 8.06726 98.8242 9.08309 98.8242 10.3362C98.8242 11.5893 99.84 12.6051 101.093 12.6051Z" fill="#6F00FB"/>
<path d="M107.144 12.6051C108.397 12.6051 109.413 11.5893 109.413 10.3362C109.413 9.08309 108.397 8.06726 107.144 8.06726C105.891 8.06726 104.875 9.08309 104.875 10.3362C104.875 11.5893 105.891 12.6051 107.144 12.6051Z" fill="#6F00FB"/>
<path d="M125.292 12.6051C126.545 12.6051 127.561 11.5893 127.561 10.3362C127.561 9.08309 126.545 8.06726 125.292 8.06726C124.039 8.06726 123.023 9.08309 123.023 10.3362C123.023 11.5893 124.039 12.6051 125.292 12.6051Z" fill="#6F00FB"/>
<path d="M52.6908 18.6555C53.9439 18.6555 54.9597 17.6397 54.9597 16.3866C54.9597 15.1335 53.9439 14.1177 52.6908 14.1177C51.4377 14.1177 50.4219 15.1335 50.4219 16.3866C50.4219 17.6397 51.4377 18.6555 52.6908 18.6555Z" fill="#6F00FB"/>
<path d="M64.7884 18.6555C66.0415 18.6555 67.0573 17.6397 67.0573 16.3866C67.0573 15.1335 66.0415 14.1177 64.7884 14.1177C63.5354 14.1177 62.5195 15.1335 62.5195 16.3866C62.5195 17.6397 63.5354 18.6555 64.7884 18.6555Z" fill="#6F00FB"/>
<path d="M70.8392 18.6555C72.0923 18.6555 73.1081 17.6397 73.1081 16.3866C73.1081 15.1335 72.0923 14.1177 70.8392 14.1177C69.5861 14.1177 68.5703 15.1335 68.5703 16.3866C68.5703 17.6397 69.5861 18.6555 70.8392 18.6555Z" fill="#6F00FB"/>
<path d="M95.0423 18.6555C96.2954 18.6555 97.3113 17.6397 97.3113 16.3866C97.3113 15.1335 96.2954 14.1177 95.0423 14.1177C93.7893 14.1177 92.7734 15.1335 92.7734 16.3866C92.7734 17.6397 93.7893 18.6555 95.0423 18.6555Z" fill="#6F00FB"/>
<path d="M101.093 18.6555C102.346 18.6555 103.362 17.6397 103.362 16.3866C103.362 15.1335 102.346 14.1177 101.093 14.1177C99.84 14.1177 98.8242 15.1335 98.8242 16.3866C98.8242 17.6397 99.84 18.6555 101.093 18.6555Z" fill="#6F00FB"/>
<path d="M113.195 18.6555C114.448 18.6555 115.464 17.6397 115.464 16.3866C115.464 15.1335 114.448 14.1177 113.195 14.1177C111.942 14.1177 110.926 15.1335 110.926 16.3866C110.926 17.6397 111.942 18.6555 113.195 18.6555Z" fill="#6F00FB"/>
<path d="M58.7377 24.7059C59.9907 24.7059 61.0066 23.6901 61.0066 22.437C61.0066 21.1839 59.9907 20.1681 58.7377 20.1681C57.4846 20.1681 56.4688 21.1839 56.4688 22.437C56.4688 23.6901 57.4846 24.7059 58.7377 24.7059Z" fill="#6F00FB"/>
<path d="M70.8392 24.7059C72.0923 24.7059 73.1081 23.6901 73.1081 22.437C73.1081 21.1839 72.0923 20.1681 70.8392 20.1681C69.5861 20.1681 68.5703 21.1839 68.5703 22.437C68.5703 23.6901 69.5861 24.7059 70.8392 24.7059Z" fill="#6F00FB"/>
<path d="M101.093 24.7059C102.346 24.7059 103.362 23.6901 103.362 22.437C103.362 21.1839 102.346 20.1681 101.093 20.1681C99.84 20.1681 98.8242 21.1839 98.8242 22.437C98.8242 23.6901 99.84 24.7059 101.093 24.7059Z" fill="#6F00FB"/>
<path d="M107.144 24.7059C108.397 24.7059 109.413 23.6901 109.413 22.437C109.413 21.1839 108.397 20.1681 107.144 20.1681C105.891 20.1681 104.875 21.1839 104.875 22.437C104.875 23.6901 105.891 24.7059 107.144 24.7059Z" fill="#6F00FB"/>
<path d="M113.195 24.7059C114.448 24.7059 115.464 23.6901 115.464 22.437C115.464 21.1839 114.448 20.1681 113.195 20.1681C111.942 20.1681 110.926 21.1839 110.926 22.437C110.926 23.6901 111.942 24.7059 113.195 24.7059Z" fill="#6F00FB"/>
<path d="M125.292 24.7059C126.545 24.7059 127.561 23.6901 127.561 22.437C127.561 21.1839 126.545 20.1681 125.292 20.1681C124.039 20.1681 123.023 21.1839 123.023 22.437C123.023 23.6901 124.039 24.7059 125.292 24.7059Z" fill="#6F00FB"/>
<path d="M52.6908 30.7563C53.9439 30.7563 54.9597 29.7405 54.9597 28.4874C54.9597 27.2343 53.9439 26.2185 52.6908 26.2185C51.4377 26.2185 50.4219 27.2343 50.4219 28.4874C50.4219 29.7405 51.4377 30.7563 52.6908 30.7563Z" fill="#6F00FB"/>
<path d="M88.9916 30.7563C90.2446 30.7563 91.2605 29.7405 91.2605 28.4874C91.2605 27.2343 90.2446 26.2185 88.9916 26.2185C87.7385 26.2185 86.7227 27.2343 86.7227 28.4874C86.7227 29.7405 87.7385 30.7563 88.9916 30.7563Z" fill="#6F00FB"/>
<path d="M95.0423 30.7563C96.2954 30.7563 97.3113 29.7405 97.3113 28.4874C97.3113 27.2343 96.2954 26.2185 95.0423 26.2185C93.7893 26.2185 92.7734 27.2343 92.7734 28.4874C92.7734 29.7405 93.7893 30.7563 95.0423 30.7563Z" fill="#6F00FB"/>
<path d="M101.093 30.7563C102.346 30.7563 103.362 29.7405 103.362 28.4874C103.362 27.2343 102.346 26.2185 101.093 26.2185C99.84 26.2185 98.8242 27.2343 98.8242 28.4874C98.8242 29.7405 99.84 30.7563 101.093 30.7563Z" fill="#6F00FB"/>
<path d="M107.144 30.7563C108.397 30.7563 109.413 29.7405 109.413 28.4874C109.413 27.2343 108.397 26.2185 107.144 26.2185C105.891 26.2185 104.875 27.2343 104.875 28.4874C104.875 29.7405 105.891 30.7563 107.144 30.7563Z" fill="#6F00FB"/>
<path d="M119.245 30.7563C120.499 30.7563 121.514 29.7405 121.514 28.4874C121.514 27.2343 120.499 26.2185 119.245 26.2185C117.992 26.2185 116.977 27.2343 116.977 28.4874C116.977 29.7405 117.992 30.7563 119.245 30.7563Z" fill="#6F00FB"/>
<path d="M125.292 30.7563C126.545 30.7563 127.561 29.7405 127.561 28.4874C127.561 27.2343 126.545 26.2185 125.292 26.2185C124.039 26.2185 123.023 27.2343 123.023 28.4874C123.023 29.7405 124.039 30.7563 125.292 30.7563Z" fill="#6F00FB"/>
<path d="M58.7377 36.8067C59.9907 36.8067 61.0066 35.7909 61.0066 34.5378C61.0066 33.2847 59.9907 32.2689 58.7377 32.2689C57.4846 32.2689 56.4688 33.2847 56.4688 34.5378C56.4688 35.7909 57.4846 36.8067 58.7377 36.8067Z" fill="#6F00FB"/>
<path d="M64.7884 36.8067C66.0415 36.8067 67.0573 35.7909 67.0573 34.5378C67.0573 33.2847 66.0415 32.2689 64.7884 32.2689C63.5354 32.2689 62.5195 33.2847 62.5195 34.5378C62.5195 35.7909 63.5354 36.8067 64.7884 36.8067Z" fill="#6F00FB"/>
<path d="M70.8392 36.8067C72.0923 36.8067 73.1081 35.7909 73.1081 34.5378C73.1081 33.2847 72.0923 32.2689 70.8392 32.2689C69.5861 32.2689 68.5703 33.2847 68.5703 34.5378C68.5703 35.7909 69.5861 36.8067 70.8392 36.8067Z" fill="#6F00FB"/>
<path d="M95.0423 36.8067C96.2954 36.8067 97.3113 35.7909 97.3113 34.5378C97.3113 33.2847 96.2954 32.2689 95.0423 32.2689C93.7893 32.2689 92.7734 33.2847 92.7734 34.5378C92.7734 35.7909 93.7893 36.8067 95.0423 36.8067Z" fill="#6F00FB"/>
<path d="M101.093 36.8067C102.346 36.8067 103.362 35.7909 103.362 34.5378C103.362 33.2847 102.346 32.2689 101.093 32.2689C99.84 32.2689 98.8242 33.2847 98.8242 34.5378C98.8242 35.7909 99.84 36.8067 101.093 36.8067Z" fill="#6F00FB"/>
<path d="M125.292 36.8067C126.545 36.8067 127.561 35.7909 127.561 34.5378C127.561 33.2847 126.545 32.2689 125.292 32.2689C124.039 32.2689 123.023 33.2847 123.023 34.5378C123.023 35.7909 124.039 36.8067 125.292 36.8067Z" fill="#6F00FB"/>
<path d="M52.6908 42.8572C53.9439 42.8572 54.9597 41.8413 54.9597 40.5882C54.9597 39.3352 53.9439 38.3193 52.6908 38.3193C51.4377 38.3193 50.4219 39.3352 50.4219 40.5882C50.4219 41.8413 51.4377 42.8572 52.6908 42.8572Z" fill="#6F00FB"/>
<path d="M64.7884 42.8572C66.0415 42.8572 67.0573 41.8413 67.0573 40.5882C67.0573 39.3352 66.0415 38.3193 64.7884 38.3193C63.5354 38.3193 62.5195 39.3352 62.5195 40.5882C62.5195 41.8413 63.5354 42.8572 64.7884 42.8572Z" fill="#6F00FB"/>
<path d="M76.89 42.8572C78.1431 42.8572 79.1589 41.8413 79.1589 40.5882C79.1589 39.3352 78.1431 38.3193 76.89 38.3193C75.6369 38.3193 74.6211 39.3352 74.6211 40.5882C74.6211 41.8413 75.6369 42.8572 76.89 42.8572Z" fill="#6F00FB"/>
<path d="M88.9916 42.8572C90.2446 42.8572 91.2605 41.8413 91.2605 40.5882C91.2605 39.3352 90.2446 38.3193 88.9916 38.3193C87.7385 38.3193 86.7227 39.3352 86.7227 40.5882C86.7227 41.8413 87.7385 42.8572 88.9916 42.8572Z" fill="#6F00FB"/>
<path d="M101.093 42.8572C102.346 42.8572 103.362 41.8413 103.362 40.5882C103.362 39.3352 102.346 38.3193 101.093 38.3193C99.84 38.3193 98.8242 39.3352 98.8242 40.5882C98.8242 41.8413 99.84 42.8572 101.093 42.8572Z" fill="#6F00FB"/>
<path d="M113.195 42.8572C114.448 42.8572 115.464 41.8413 115.464 40.5882C115.464 39.3352 114.448 38.3193 113.195 38.3193C111.942 38.3193 110.926 39.3352 110.926 40.5882C110.926 41.8413 111.942 42.8572 113.195 42.8572Z" fill="#6F00FB"/>
<path d="M125.292 42.8572C126.545 42.8572 127.561 41.8413 127.561 40.5882C127.561 39.3352 126.545 38.3193 125.292 38.3193C124.039 38.3193 123.023 39.3352 123.023 40.5882C123.023 41.8413 124.039 42.8572 125.292 42.8572Z" fill="#6F00FB"/>
<path d="M82.9408 48.9076C84.1939 48.9076 85.2097 47.8917 85.2097 46.6387C85.2097 45.3856 84.1939 44.3698 82.9408 44.3698C81.6877 44.3698 80.6719 45.3856 80.6719 46.6387C80.6719 47.8917 81.6877 48.9076 82.9408 48.9076Z" fill="#6F00FB"/>
<path d="M95.0423 48.9076C96.2954 48.9076 97.3113 47.8917 97.3113 46.6387C97.3113 45.3856 96.2954 44.3698 95.0423 44.3698C93.7893 44.3698 92.7734 45.3856 92.7734 46.6387C92.7734 47.8917 93.7893 48.9076 95.0423 48.9076Z" fill="#6F00FB"/>
<path d="M101.093 48.9076C102.346 48.9076 103.362 47.8917 103.362 46.6387C103.362 45.3856 102.346 44.3698 101.093 44.3698C99.84 44.3698 98.8242 45.3856 98.8242 46.6387C98.8242 47.8917 99.84 48.9076 101.093 48.9076Z" fill="#6F00FB"/>
<path d="M107.144 48.9076C108.397 48.9076 109.413 47.8917 109.413 46.6387C109.413 45.3856 108.397 44.3698 107.144 44.3698C105.891 44.3698 104.875 45.3856 104.875 46.6387C104.875 47.8917 105.891 48.9076 107.144 48.9076Z" fill="#6F00FB"/>
<path d="M113.195 48.9076C114.448 48.9076 115.464 47.8917 115.464 46.6387C115.464 45.3856 114.448 44.3698 113.195 44.3698C111.942 44.3698 110.926 45.3856 110.926 46.6387C110.926 47.8917 111.942 48.9076 113.195 48.9076Z" fill="#6F00FB"/>
<path d="M4.28453 54.958C5.53762 54.958 6.55344 53.9422 6.55344 52.6891C6.55344 51.436 5.53762 50.4202 4.28453 50.4202C3.03145 50.4202 2.01562 51.436 2.01562 52.6891C2.01562 53.9422 3.03145 54.958 4.28453 54.958Z" fill="#6F00FB"/>
<path d="M22.4369 54.958C23.69 54.958 24.7058 53.9422 24.7058 52.6891C24.7058 51.436 23.69 50.4202 22.4369 50.4202C21.1838 50.4202 20.168 51.436 20.168 52.6891C20.168 53.9422 21.1838 54.958 22.4369 54.958Z" fill="#6F00FB"/>
<path d="M28.4877 54.958C29.7407 54.958 30.7566 53.9422 30.7566 52.6891C30.7566 51.436 29.7407 50.4202 28.4877 50.4202C27.2346 50.4202 26.2188 51.436 26.2188 52.6891C26.2188 53.9422 27.2346 54.958 28.4877 54.958Z" fill="#6F00FB"/>
<path d="M34.5384 54.958C35.7915 54.958 36.8073 53.9422 36.8073 52.6891C36.8073 51.436 35.7915 50.4202 34.5384 50.4202C33.2854 50.4202 32.2695 51.436 32.2695 52.6891C32.2695 53.9422 33.2854 54.958 34.5384 54.958Z" fill="#6F00FB"/>
<path d="M40.5892 54.958C41.8423 54.958 42.8581 53.9422 42.8581 52.6891C42.8581 51.436 41.8423 50.4202 40.5892 50.4202C39.3361 50.4202 38.3203 51.436 38.3203 52.6891C38.3203 53.9422 39.3361 54.958 40.5892 54.958Z" fill="#6F00FB"/>
<path d="M46.64 54.958C47.8931 54.958 48.9089 53.9422 48.9089 52.6891C48.9089 51.436 47.8931 50.4202 46.64 50.4202C45.3869 50.4202 44.3711 51.436 44.3711 52.6891C44.3711 53.9422 45.3869 54.958 46.64 54.958Z" fill="#6F00FB"/>
<path d="M52.6908 54.958C53.9439 54.958 54.9597 53.9422 54.9597 52.6891C54.9597 51.436 53.9439 50.4202 52.6908 50.4202C51.4377 50.4202 50.4219 51.436 50.4219 52.6891C50.4219 53.9422 51.4377 54.958 52.6908 54.958Z" fill="#6F00FB"/>
<path d="M64.7884 54.958C66.0415 54.958 67.0573 53.9422 67.0573 52.6891C67.0573 51.436 66.0415 50.4202 64.7884 50.4202C63.5354 50.4202 62.5195 51.436 62.5195 52.6891C62.5195 53.9422 63.5354 54.958 64.7884 54.958Z" fill="#6F00FB"/>
<path d="M70.8392 54.958C72.0923 54.958 73.1081 53.9422 73.1081 52.6891C73.1081 51.436 72.0923 50.4202 70.8392 50.4202C69.5861 50.4202 68.5703 51.436 68.5703 52.6891C68.5703 53.9422 69.5861 54.958 70.8392 54.958Z" fill="#6F00FB"/>
<path d="M82.9408 54.958C84.1939 54.958 85.2097 53.9422 85.2097 52.6891C85.2097 51.436 84.1939 50.4202 82.9408 50.4202C81.6877 50.4202 80.6719 51.436 80.6719 52.6891C80.6719 53.9422 81.6877 54.958 82.9408 54.958Z" fill="#6F00FB"/>
<path d="M107.144 54.958C108.397 54.958 109.413 53.9422 109.413 52.6891C109.413 51.436 108.397 50.4202 107.144 50.4202C105.891 50.4202 104.875 51.436 104.875 52.6891C104.875 53.9422 105.891 54.958 107.144 54.958Z" fill="#6F00FB"/>
<path d="M119.245 54.958C120.499 54.958 121.514 53.9422 121.514 52.6891C121.514 51.436 120.499 50.4202 119.245 50.4202C117.992 50.4202 116.977 51.436 116.977 52.6891C116.977 53.9422 117.992 54.958 119.245 54.958Z" fill="#6F00FB"/>
<path d="M125.292 54.958C126.545 54.958 127.561 53.9422 127.561 52.6891C127.561 51.436 126.545 50.4202 125.292 50.4202C124.039 50.4202 123.023 51.436 123.023 52.6891C123.023 53.9422 124.039 54.958 125.292 54.958Z" fill="#6F00FB"/>
<path d="M131.343 54.958C132.596 54.958 133.612 53.9422 133.612 52.6891C133.612 51.436 132.596 50.4202 131.343 50.4202C130.09 50.4202 129.074 51.436 129.074 52.6891C129.074 53.9422 130.09 54.958 131.343 54.958Z" fill="#6F00FB"/>
<path d="M149.495 54.958C150.749 54.958 151.764 53.9422 151.764 52.6891C151.764 51.436 150.749 50.4202 149.495 50.4202C148.242 50.4202 147.227 51.436 147.227 52.6891C147.227 53.9422 148.242 54.958 149.495 54.958Z" fill="#6F00FB"/>
<path d="M161.597 54.958C162.85 54.958 163.866 53.9422 163.866 52.6891C163.866 51.436 162.85 50.4202 161.597 50.4202C160.344 50.4202 159.328 51.436 159.328 52.6891C159.328 53.9422 160.344 54.958 161.597 54.958Z" fill="#6F00FB"/>
<path d="M167.648 54.958C168.901 54.958 169.917 53.9422 169.917 52.6891C169.917 51.436 168.901 50.4202 167.648 50.4202C166.395 50.4202 165.379 51.436 165.379 52.6891C165.379 53.9422 166.395 54.958 167.648 54.958Z" fill="#6F00FB"/>
<path d="M173.699 54.958C174.952 54.958 175.968 53.9422 175.968 52.6891C175.968 51.436 174.952 50.4202 173.699 50.4202C172.446 50.4202 171.43 51.436 171.43 52.6891C171.43 53.9422 172.446 54.958 173.699 54.958Z" fill="#6F00FB"/>
<path d="M4.28453 61.0084C5.53762 61.0084 6.55344 59.9926 6.55344 58.7395C6.55344 57.4864 5.53762 56.4706 4.28453 56.4706C3.03145 56.4706 2.01562 57.4864 2.01562 58.7395C2.01562 59.9926 3.03145 61.0084 4.28453 61.0084Z" fill="#6F00FB"/>
<path d="M10.3353 61.0084C11.5884 61.0084 12.6042 59.9926 12.6042 58.7395C12.6042 57.4864 11.5884 56.4706 10.3353 56.4706C9.08223 56.4706 8.06641 57.4864 8.06641 58.7395C8.06641 59.9926 9.08223 61.0084 10.3353 61.0084Z" fill="#6F00FB"/>
<path d="M28.4877 61.0084C29.7407 61.0084 30.7566 59.9926 30.7566 58.7395C30.7566 57.4864 29.7407 56.4706 28.4877 56.4706C27.2346 56.4706 26.2188 57.4864 26.2188 58.7395C26.2188 59.9926 27.2346 61.0084 28.4877 61.0084Z" fill="#6F00FB"/>
<path d="M34.5384 61.0084C35.7915 61.0084 36.8073 59.9926 36.8073 58.7395C36.8073 57.4864 35.7915 56.4706 34.5384 56.4706C33.2854 56.4706 32.2695 57.4864 32.2695 58.7395C32.2695 59.9926 33.2854 61.0084 34.5384 61.0084Z" fill="#6F00FB"/>
<path d="M52.6908 61.0084C53.9439 61.0084 54.9597 59.9926 54.9597 58.7395C54.9597 57.4864 53.9439 56.4706 52.6908 56.4706C51.4377 56.4706 50.4219 57.4864 50.4219 58.7395C50.4219 59.9926 51.4377 61.0084 52.6908 61.0084Z" fill="#6F00FB"/>
<path d="M76.89 61.0084C78.1431 61.0084 79.1589 59.9926 79.1589 58.7395C79.1589 57.4864 78.1431 56.4706 76.89 56.4706C75.6369 56.4706 74.6211 57.4864 74.6211 58.7395C74.6211 59.9926 75.6369 61.0084 76.89 61.0084Z" fill="#6F00FB"/>
<path d="M82.9408 61.0084C84.1939 61.0084 85.2097 59.9926 85.2097 58.7395C85.2097 57.4864 84.1939 56.4706 82.9408 56.4706C81.6877 56.4706 80.6719 57.4864 80.6719 58.7395C80.6719 59.9926 81.6877 61.0084 82.9408 61.0084Z" fill="#6F00FB"/>
<path d="M101.093 61.0084C102.346 61.0084 103.362 59.9926 103.362 58.7395C103.362 57.4864 102.346 56.4706 101.093 56.4706C99.84 56.4706 98.8242 57.4864 98.8242 58.7395C98.8242 59.9926 99.84 61.0084 101.093 61.0084Z" fill="#6F00FB"/>
<path d="M131.343 61.0084C132.596 61.0084 133.612 59.9926 133.612 58.7395C133.612 57.4864 132.596 56.4706 131.343 56.4706C130.09 56.4706 129.074 57.4864 129.074 58.7395C129.074 59.9926 130.09 61.0084 131.343 61.0084Z" fill="#6F00FB"/>
<path d="M149.495 61.0084C150.749 61.0084 151.764 59.9926 151.764 58.7395C151.764 57.4864 150.749 56.4706 149.495 56.4706C148.242 56.4706 147.227 57.4864 147.227 58.7395C147.227 59.9926 148.242 61.0084 149.495 61.0084Z" fill="#6F00FB"/>
<path d="M155.546 61.0084C156.799 61.0084 157.815 59.9926 157.815 58.7395C157.815 57.4864 156.799 56.4706 155.546 56.4706C154.293 56.4706 153.277 57.4864 153.277 58.7395C153.277 59.9926 154.293 61.0084 155.546 61.0084Z" fill="#6F00FB"/>
<path d="M161.597 61.0084C162.85 61.0084 163.866 59.9926 163.866 58.7395C163.866 57.4864 162.85 56.4706 161.597 56.4706C160.344 56.4706 159.328 57.4864 159.328 58.7395C159.328 59.9926 160.344 61.0084 161.597 61.0084Z" fill="#6F00FB"/>
<path d="M173.699 61.0084C174.952 61.0084 175.968 59.9926 175.968 58.7395C175.968 57.4864 174.952 56.4706 173.699 56.4706C172.446 56.4706 171.43 57.4864 171.43 58.7395C171.43 59.9926 172.446 61.0084 173.699 61.0084Z" fill="#6F00FB"/>
<path d="M4.28453 67.0588C5.53762 67.0588 6.55344 66.043 6.55344 64.7899C6.55344 63.5368 5.53762 62.521 4.28453 62.521C3.03145 62.521 2.01562 63.5368 2.01562 64.7899C2.01562 66.043 3.03145 67.0588 4.28453 67.0588Z" fill="#6F00FB"/>
<path d="M16.3861 67.0588C17.6392 67.0588 18.655 66.043 18.655 64.7899C18.655 63.5368 17.6392 62.521 16.3861 62.521C15.133 62.521 14.1172 63.5368 14.1172 64.7899C14.1172 66.043 15.133 67.0588 16.3861 67.0588Z" fill="#6F00FB"/>
<path d="M28.4877 67.0588C29.7407 67.0588 30.7566 66.043 30.7566 64.7899C30.7566 63.5368 29.7407 62.521 28.4877 62.521C27.2346 62.521 26.2188 63.5368 26.2188 64.7899C26.2188 66.043 27.2346 67.0588 28.4877 67.0588Z" fill="#6F00FB"/>
<path d="M40.5892 67.0588C41.8423 67.0588 42.8581 66.043 42.8581 64.7899C42.8581 63.5368 41.8423 62.521 40.5892 62.521C39.3361 62.521 38.3203 63.5368 38.3203 64.7899C38.3203 66.043 39.3361 67.0588 40.5892 67.0588Z" fill="#6F00FB"/>
<path d="M46.64 67.0588C47.8931 67.0588 48.9089 66.043 48.9089 64.7899C48.9089 63.5368 47.8931 62.521 46.64 62.521C45.3869 62.521 44.3711 63.5368 44.3711 64.7899C44.3711 66.043 45.3869 67.0588 46.64 67.0588Z" fill="#6F00FB"/>
<path d="M52.6908 67.0588C53.9439 67.0588 54.9597 66.043 54.9597 64.7899C54.9597 63.5368 53.9439 62.521 52.6908 62.521C51.4377 62.521 50.4219 63.5368 50.4219 64.7899C50.4219 66.043 51.4377 67.0588 52.6908 67.0588Z" fill="#6F00FB"/>
<path d="M58.7377 67.0588C59.9907 67.0588 61.0066 66.043 61.0066 64.7899C61.0066 63.5368 59.9907 62.521 58.7377 62.521C57.4846 62.521 56.4688 63.5368 56.4688 64.7899C56.4688 66.043 57.4846 67.0588 58.7377 67.0588Z" fill="#6F00FB"/>
<path d="M64.7884 67.0588C66.0415 67.0588 67.0573 66.043 67.0573 64.7899C67.0573 63.5368 66.0415 62.521 64.7884 62.521C63.5354 62.521 62.5195 63.5368 62.5195 64.7899C62.5195 66.043 63.5354 67.0588 64.7884 67.0588Z" fill="#6F00FB"/>
<path d="M70.8392 67.0588C72.0923 67.0588 73.1081 66.043 73.1081 64.7899C73.1081 63.5368 72.0923 62.521 70.8392 62.521C69.5861 62.521 68.5703 63.5368 68.5703 64.7899C68.5703 66.043 69.5861 67.0588 70.8392 67.0588Z" fill="#6F00FB"/>
<path d="M76.89 67.0588C78.1431 67.0588 79.1589 66.043 79.1589 64.7899C79.1589 63.5368 78.1431 62.521 76.89 62.521C75.6369 62.521 74.6211 63.5368 74.6211 64.7899C74.6211 66.043 75.6369 67.0588 76.89 67.0588Z" fill="#6F00FB"/>
<path d="M82.9408 67.0588C84.1939 67.0588 85.2097 66.043 85.2097 64.7899C85.2097 63.5368 84.1939 62.521 82.9408 62.521C81.6877 62.521 80.6719 63.5368 80.6719 64.7899C80.6719 66.043 81.6877 67.0588 82.9408 67.0588Z" fill="#6F00FB"/>
<path d="M95.0423 67.0588C96.2954 67.0588 97.3113 66.043 97.3113 64.7899C97.3113 63.5368 96.2954 62.521 95.0423 62.521C93.7893 62.521 92.7734 63.5368 92.7734 64.7899C92.7734 66.043 93.7893 67.0588 95.0423 67.0588Z" fill="#6F00FB"/>
<path d="M101.093 67.0588C102.346 67.0588 103.362 66.043 103.362 64.7899C103.362 63.5368 102.346 62.521 101.093 62.521C99.84 62.521 98.8242 63.5368 98.8242 64.7899C98.8242 66.043 99.84 67.0588 101.093 67.0588Z" fill="#6F00FB"/>
<path d="M125.292 67.0588C126.545 67.0588 127.561 66.043 127.561 64.7899C127.561 63.5368 126.545 62.521 125.292 62.521C124.039 62.521 123.023 63.5368 123.023 64.7899C123.023 66.043 124.039 67.0588 125.292 67.0588Z" fill="#6F00FB"/>
<path d="M155.546 67.0588C156.799 67.0588 157.815 66.043 157.815 64.7899C157.815 63.5368 156.799 62.521 155.546 62.521C154.293 62.521 153.277 63.5368 153.277 64.7899C153.277 66.043 154.293 67.0588 155.546 67.0588Z" fill="#6F00FB"/>
<path d="M4.28453 73.1092C5.53762 73.1092 6.55344 72.0934 6.55344 70.8403C6.55344 69.5872 5.53762 68.5714 4.28453 68.5714C3.03145 68.5714 2.01562 69.5872 2.01562 70.8403C2.01562 72.0934 3.03145 73.1092 4.28453 73.1092Z" fill="#6F00FB"/>
<path d="M10.3353 73.1092C11.5884 73.1092 12.6042 72.0934 12.6042 70.8403C12.6042 69.5872 11.5884 68.5714 10.3353 68.5714C9.08223 68.5714 8.06641 69.5872 8.06641 70.8403C8.06641 72.0934 9.08223 73.1092 10.3353 73.1092Z" fill="#6F00FB"/>
<path d="M16.3861 73.1092C17.6392 73.1092 18.655 72.0934 18.655 70.8403C18.655 69.5872 17.6392 68.5714 16.3861 68.5714C15.133 68.5714 14.1172 69.5872 14.1172 70.8403C14.1172 72.0934 15.133 73.1092 16.3861 73.1092Z" fill="#6F00FB"/>
<path d="M28.4877 73.1092C29.7407 73.1092 30.7566 72.0934 30.7566 70.8403C30.7566 69.5872 29.7407 68.5714 28.4877 68.5714C27.2346 68.5714 26.2188 69.5872 26.2188 70.8403C26.2188 72.0934 27.2346 73.1092 28.4877 73.1092Z" fill="#6F00FB"/>
<path d="M34.5384 73.1092C35.7915 73.1092 36.8073 72.0934 36.8073 70.8403C36.8073 69.5872 35.7915 68.5714 34.5384 68.5714C33.2854 68.5714 32.2695 69.5872 32.2695 70.8403C32.2695 72.0934 33.2854 73.1092 34.5384 73.1092Z" fill="#6F00FB"/>
<path d="M82.9408 73.1092C84.1939 73.1092 85.2097 72.0934 85.2097 70.8403C85.2097 69.5872 84.1939 68.5714 82.9408 68.5714C81.6877 68.5714 80.6719 69.5872 80.6719 70.8403C80.6719 72.0934 81.6877 73.1092 82.9408 73.1092Z" fill="#6F00FB"/>
<path d="M101.093 73.1092C102.346 73.1092 103.362 72.0934 103.362 70.8403C103.362 69.5872 102.346 68.5714 101.093 68.5714C99.84 68.5714 98.8242 69.5872 98.8242 70.8403C98.8242 72.0934 99.84 73.1092 101.093 73.1092Z" fill="#6F00FB"/>
<path d="M113.195 73.1092C114.448 73.1092 115.464 72.0934 115.464 70.8403C115.464 69.5872 114.448 68.5714 113.195 68.5714C111.942 68.5714 110.926 69.5872 110.926 70.8403C110.926 72.0934 111.942 73.1092 113.195 73.1092Z" fill="#6F00FB"/>
<path d="M119.245 73.1092C120.499 73.1092 121.514 72.0934 121.514 70.8403C121.514 69.5872 120.499 68.5714 119.245 68.5714C117.992 68.5714 116.977 69.5872 116.977 70.8403C116.977 72.0934 117.992 73.1092 119.245 73.1092Z" fill="#6F00FB"/>
<path d="M125.292 73.1092C126.545 73.1092 127.561 72.0934 127.561 70.8403C127.561 69.5872 126.545 68.5714 125.292 68.5714C124.039 68.5714 123.023 69.5872 123.023 70.8403C123.023 72.0934 124.039 73.1092 125.292 73.1092Z" fill="#6F00FB"/>
<path d="M149.495 73.1092C150.749 73.1092 151.764 72.0934 151.764 70.8403C151.764 69.5872 150.749 68.5714 149.495 68.5714C148.242 68.5714 147.227 69.5872 147.227 70.8403C147.227 72.0934 148.242 73.1092 149.495 73.1092Z" fill="#6F00FB"/>
<path d="M155.546 73.1092C156.799 73.1092 157.815 72.0934 157.815 70.8403C157.815 69.5872 156.799 68.5714 155.546 68.5714C154.293 68.5714 153.277 69.5872 153.277 70.8403C153.277 72.0934 154.293 73.1092 155.546 73.1092Z" fill="#6F00FB"/>
<path d="M167.648 73.1092C168.901 73.1092 169.917 72.0934 169.917 70.8403C169.917 69.5872 168.901 68.5714 167.648 68.5714C166.395 68.5714 165.379 69.5872 165.379 70.8403C165.379 72.0934 166.395 73.1092 167.648 73.1092Z" fill="#6F00FB"/>
<path d="M22.4369 79.1596C23.69 79.1596 24.7058 78.1438 24.7058 76.8907C24.7058 75.6377 23.69 74.6218 22.4369 74.6218C21.1838 74.6218 20.168 75.6377 20.168 76.8907C20.168 78.1438 21.1838 79.1596 22.4369 79.1596Z" fill="#6F00FB"/>
<path d="M34.5384 79.1596C35.7915 79.1596 36.8073 78.1438 36.8073 76.8907C36.8073 75.6377 35.7915 74.6218 34.5384 74.6218C33.2854 74.6218 32.2695 75.6377 32.2695 76.8907C32.2695 78.1438 33.2854 79.1596 34.5384 79.1596Z" fill="#6F00FB"/>
<path d="M40.5892 79.1596C41.8423 79.1596 42.8581 78.1438 42.8581 76.8907C42.8581 75.6377 41.8423 74.6218 40.5892 74.6218C39.3361 74.6218 38.3203 75.6377 38.3203 76.8907C38.3203 78.1438 39.3361 79.1596 40.5892 79.1596Z" fill="#6F00FB"/>
<path d="M46.64 79.1596C47.8931 79.1596 48.9089 78.1438 48.9089 76.8907C48.9089 75.6377 47.8931 74.6218 46.64 74.6218C45.3869 74.6218 44.3711 75.6377 44.3711 76.8907C44.3711 78.1438 45.3869 79.1596 46.64 79.1596Z" fill="#6F00FB"/>
<path d="M64.7884 79.1596C66.0415 79.1596 67.0573 78.1438 67.0573 76.8907C67.0573 75.6377 66.0415 74.6218 64.7884 74.6218C63.5354 74.6218 62.5195 75.6377 62.5195 76.8907C62.5195 78.1438 63.5354 79.1596 64.7884 79.1596Z" fill="#6F00FB"/>
<path d="M82.9408 79.1596C84.1939 79.1596 85.2097 78.1438 85.2097 76.8907C85.2097 75.6377 84.1939 74.6218 82.9408 74.6218C81.6877 74.6218 80.6719 75.6377 80.6719 76.8907C80.6719 78.1438 81.6877 79.1596 82.9408 79.1596Z" fill="#6F00FB"/>
<path d="M95.0423 79.1596C96.2954 79.1596 97.3113 78.1438 97.3113 76.8907C97.3113 75.6377 96.2954 74.6218 95.0423 74.6218C93.7893 74.6218 92.7734 75.6377 92.7734 76.8907C92.7734 78.1438 93.7893 79.1596 95.0423 79.1596Z" fill="#6F00FB"/>
<path d="M101.093 79.1596C102.346 79.1596 103.362 78.1438 103.362 76.8907C103.362 75.6377 102.346 74.6218 101.093 74.6218C99.84 74.6218 98.8242 75.6377 98.8242 76.8907C98.8242 78.1438 99.84 79.1596 101.093 79.1596Z" fill="#6F00FB"/>
<path d="M107.144 79.1596C108.397 79.1596 109.413 78.1438 109.413 76.8907C109.413 75.6377 108.397 74.6218 107.144 74.6218C105.891 74.6218 104.875 75.6377 104.875 76.8907C104.875 78.1438 105.891 79.1596 107.144 79.1596Z" fill="#6F00FB"/>
<path d="M119.245 79.1596C120.499 79.1596 121.514 78.1438 121.514 76.8907C121.514 75.6377 120.499 74.6218 119.245 74.6218C117.992 74.6218 116.977 75.6377 116.977 76.8907C116.977 78.1438 117.992 79.1596 119.245 79.1596Z" fill="#6F00FB"/>
<path d="M125.292 79.1596C126.545 79.1596 127.561 78.1438 127.561 76.8907C127.561 75.6377 126.545 74.6218 125.292 74.6218C124.039 74.6218 123.023 75.6377 123.023 76.8907C123.023 78.1438 124.039 79.1596 125.292 79.1596Z" fill="#6F00FB"/>
<path d="M131.343 79.1596C132.596 79.1596 133.612 78.1438 133.612 76.8907C133.612 75.6377 132.596 74.6218 131.343 74.6218C130.09 74.6218 129.074 75.6377 129.074 76.8907C129.074 78.1438 130.09 79.1596 131.343 79.1596Z" fill="#6F00FB"/>
<path d="M143.445 79.1596C144.698 79.1596 145.714 78.1438 145.714 76.8907C145.714 75.6377 144.698 74.6218 143.445 74.6218C142.192 74.6218 141.176 75.6377 141.176 76.8907C141.176 78.1438 142.192 79.1596 143.445 79.1596Z" fill="#6F00FB"/>
<path d="M155.546 79.1596C156.799 79.1596 157.815 78.1438 157.815 76.8907C157.815 75.6377 156.799 74.6218 155.546 74.6218C154.293 74.6218 153.277 75.6377 153.277 76.8907C153.277 78.1438 154.293 79.1596 155.546 79.1596Z" fill="#6F00FB"/>
<path d="M161.597 79.1596C162.85 79.1596 163.866 78.1438 163.866 76.8907C163.866 75.6377 162.85 74.6218 161.597 74.6218C160.344 74.6218 159.328 75.6377 159.328 76.8907C159.328 78.1438 160.344 79.1596 161.597 79.1596Z" fill="#6F00FB"/>
<path d="M173.699 79.1596C174.952 79.1596 175.968 78.1438 175.968 76.8907C175.968 75.6377 174.952 74.6218 173.699 74.6218C172.446 74.6218 171.43 75.6377 171.43 76.8907C171.43 78.1438 172.446 79.1596 173.699 79.1596Z" fill="#6F00FB"/>
<path d="M4.28453 85.2101C5.53762 85.2101 6.55344 84.1942 6.55344 82.9411C6.55344 81.6881 5.53762 80.6722 4.28453 80.6722C3.03145 80.6722 2.01562 81.6881 2.01562 82.9411C2.01562 84.1942 3.03145 85.2101 4.28453 85.2101Z" fill="#6F00FB"/>
<path d="M16.3861 85.2101C17.6392 85.2101 18.655 84.1942 18.655 82.9411C18.655 81.6881 17.6392 80.6722 16.3861 80.6722C15.133 80.6722 14.1172 81.6881 14.1172 82.9411C14.1172 84.1942 15.133 85.2101 16.3861 85.2101Z" fill="#6F00FB"/>
<path d="M28.4877 85.2101C29.7407 85.2101 30.7566 84.1942 30.7566 82.9411C30.7566 81.6881 29.7407 80.6722 28.4877 80.6722C27.2346 80.6722 26.2188 81.6881 26.2188 82.9411C26.2188 84.1942 27.2346 85.2101 28.4877 85.2101Z" fill="#6F00FB"/>
<path d="M34.5384 85.2101C35.7915 85.2101 36.8073 84.1942 36.8073 82.9411C36.8073 81.6881 35.7915 80.6722 34.5384 80.6722C33.2854 80.6722 32.2695 81.6881 32.2695 82.9411C32.2695 84.1942 33.2854 85.2101 34.5384 85.2101Z" fill="#6F00FB"/>
<path d="M58.7377 85.2101C59.9907 85.2101 61.0066 84.1942 61.0066 82.9411C61.0066 81.6881 59.9907 80.6722 58.7377 80.6722C57.4846 80.6722 56.4688 81.6881 56.4688 82.9411C56.4688 84.1942 57.4846 85.2101 58.7377 85.2101Z" fill="#6F00FB"/>
<path d="M64.7884 85.2101C66.0415 85.2101 67.0573 84.1942 67.0573 82.9411C67.0573 81.6881 66.0415 80.6722 64.7884 80.6722C63.5354 80.6722 62.5195 81.6881 62.5195 82.9411C62.5195 84.1942 63.5354 85.2101 64.7884 85.2101Z" fill="#6F00FB"/>
<path d="M82.9408 85.2101C84.1939 85.2101 85.2097 84.1942 85.2097 82.9411C85.2097 81.6881 84.1939 80.6722 82.9408 80.6722C81.6877 80.6722 80.6719 81.6881 80.6719 82.9411C80.6719 84.1942 81.6877 85.2101 82.9408 85.2101Z" fill="#6F00FB"/>
<path d="M88.9916 85.2101C90.2446 85.2101 91.2605 84.1942 91.2605 82.9411C91.2605 81.6881 90.2446 80.6722 88.9916 80.6722C87.7385 80.6722 86.7227 81.6881 86.7227 82.9411C86.7227 84.1942 87.7385 85.2101 88.9916 85.2101Z" fill="#6F00FB"/>
<path d="M101.093 85.2101C102.346 85.2101 103.362 84.1942 103.362 82.9411C103.362 81.6881 102.346 80.6722 101.093 80.6722C99.84 80.6722 98.8242 81.6881 98.8242 82.9411C98.8242 84.1942 99.84 85.2101 101.093 85.2101Z" fill="#6F00FB"/>
<path d="M131.343 85.2101C132.596 85.2101 133.612 84.1942 133.612 82.9411C133.612 81.6881 132.596 80.6722 131.343 80.6722C130.09 80.6722 129.074 81.6881 129.074 82.9411C129.074 84.1942 130.09 85.2101 131.343 85.2101Z" fill="#6F00FB"/>
<path d="M143.445 85.2101C144.698 85.2101 145.714 84.1942 145.714 82.9411C145.714 81.6881 144.698 80.6722 143.445 80.6722C142.192 80.6722 141.176 81.6881 141.176 82.9411C141.176 84.1942 142.192 85.2101 143.445 85.2101Z" fill="#6F00FB"/>
<path d="M161.597 85.2101C162.85 85.2101 163.866 84.1942 163.866 82.9411C163.866 81.6881 162.85 80.6722 161.597 80.6722C160.344 80.6722 159.328 81.6881 159.328 82.9411C159.328 84.1942 160.344 85.2101 161.597 85.2101Z" fill="#6F00FB"/>
<path d="M4.28453 91.2605C5.53762 91.2605 6.55344 90.2446 6.55344 88.9916C6.55344 87.7385 5.53762 86.7227 4.28453 86.7227C3.03145 86.7227 2.01562 87.7385 2.01562 88.9916C2.01562 90.2446 3.03145 91.2605 4.28453 91.2605Z" fill="#6F00FB"/>
<path d="M22.4369 91.2605C23.69 91.2605 24.7058 90.2446 24.7058 88.9916C24.7058 87.7385 23.69 86.7227 22.4369 86.7227C21.1838 86.7227 20.168 87.7385 20.168 88.9916C20.168 90.2446 21.1838 91.2605 22.4369 91.2605Z" fill="#6F00FB"/>
<path d="M28.4877 91.2605C29.7407 91.2605 30.7566 90.2446 30.7566 88.9916C30.7566 87.7385 29.7407 86.7227 28.4877 86.7227C27.2346 86.7227 26.2188 87.7385 26.2188 88.9916C26.2188 90.2446 27.2346 91.2605 28.4877 91.2605Z" fill="#6F00FB"/>
<path d="M34.5384 91.2605C35.7915 91.2605 36.8073 90.2446 36.8073 88.9916C36.8073 87.7385 35.7915 86.7227 34.5384 86.7227C33.2854 86.7227 32.2695 87.7385 32.2695 88.9916C32.2695 90.2446 33.2854 91.2605 34.5384 91.2605Z" fill="#6F00FB"/>
<path d="M40.5892 91.2605C41.8423 91.2605 42.8581 90.2446 42.8581 88.9916C42.8581 87.7385 41.8423 86.7227 40.5892 86.7227C39.3361 86.7227 38.3203 87.7385 38.3203 88.9916C38.3203 90.2446 39.3361 91.2605 40.5892 91.2605Z" fill="#6F00FB"/>
<path d="M58.7377 91.2605C59.9907 91.2605 61.0066 90.2446 61.0066 88.9916C61.0066 87.7385 59.9907 86.7227 58.7377 86.7227C57.4846 86.7227 56.4688 87.7385 56.4688 88.9916C56.4688 90.2446 57.4846 91.2605 58.7377 91.2605Z" fill="#6F00FB"/>
<path d="M76.89 91.2605C78.1431 91.2605 79.1589 90.2446 79.1589 88.9916C79.1589 87.7385 78.1431 86.7227 76.89 86.7227C75.6369 86.7227 74.6211 87.7385 74.6211 88.9916C74.6211 90.2446 75.6369 91.2605 76.89 91.2605Z" fill="#6F00FB"/>
<path d="M82.9408 91.2605C84.1939 91.2605 85.2097 90.2446 85.2097 88.9916C85.2097 87.7385 84.1939 86.7227 82.9408 86.7227C81.6877 86.7227 80.6719 87.7385 80.6719 88.9916C80.6719 90.2446 81.6877 91.2605 82.9408 91.2605Z" fill="#6F00FB"/>
<path d="M101.093 91.2605C102.346 91.2605 103.362 90.2446 103.362 88.9916C103.362 87.7385 102.346 86.7227 101.093 86.7227C99.84 86.7227 98.8242 87.7385 98.8242 88.9916C98.8242 90.2446 99.84 91.2605 101.093 91.2605Z" fill="#6F00FB"/>
<path d="M107.144 91.2605C108.397 91.2605 109.413 90.2446 109.413 88.9916C109.413 87.7385 108.397 86.7227 107.144 86.7227C105.891 86.7227 104.875 87.7385 104.875 88.9916C104.875 90.2446 105.891 91.2605 107.144 91.2605Z" fill="#6F00FB"/>
<path d="M113.195 91.2605C114.448 91.2605 115.464 90.2446 115.464 88.9916C115.464 87.7385 114.448 86.7227 113.195 86.7227C111.942 86.7227 110.926 87.7385 110.926 88.9916C110.926 90.2446 111.942 91.2605 113.195 91.2605Z" fill="#6F00FB"/>
<path d="M119.245 91.2605C120.499 91.2605 121.514 90.2446 121.514 88.9916C121.514 87.7385 120.499 86.7227 119.245 86.7227C117.992 86.7227 116.977 87.7385 116.977 88.9916C116.977 90.2446 117.992 91.2605 119.245 91.2605Z" fill="#6F00FB"/>
<path d="M125.292 91.2605C126.545 91.2605 127.561 90.2446 127.561 88.9916C127.561 87.7385 126.545 86.7227 125.292 86.7227C124.039 86.7227 123.023 87.7385 123.023 88.9916C123.023 90.2446 124.039 91.2605 125.292 91.2605Z" fill="#6F00FB"/>
<path d="M137.394 91.2605C138.647 91.2605 139.663 90.2446 139.663 88.9916C139.663 87.7385 138.647 86.7227 137.394 86.7227C136.141 86.7227 135.125 87.7385 135.125 88.9916C135.125 90.2446 136.141 91.2605 137.394 91.2605Z" fill="#6F00FB"/>
<path d="M161.597 91.2605C162.85 91.2605 163.866 90.2446 163.866 88.9916C163.866 87.7385 162.85 86.7227 161.597 86.7227C160.344 86.7227 159.328 87.7385 159.328 88.9916C159.328 90.2446 160.344 91.2605 161.597 91.2605Z" fill="#6F00FB"/>
<path d="M167.648 91.2605C168.901 91.2605 169.917 90.2446 169.917 88.9916C169.917 87.7385 168.901 86.7227 167.648 86.7227C166.395 86.7227 165.379 87.7385 165.379 88.9916C165.379 90.2446 166.395 91.2605 167.648 91.2605Z" fill="#6F00FB"/>
<path d="M16.3861 97.3109C17.6392 97.3109 18.655 96.2951 18.655 95.042C18.655 93.7889 17.6392 92.7731 16.3861 92.7731C15.133 92.7731 14.1172 93.7889 14.1172 95.042C14.1172 96.2951 15.133 97.3109 16.3861 97.3109Z" fill="#6F00FB"/>
<path d="M58.7377 97.3109C59.9907 97.3109 61.0066 96.2951 61.0066 95.042C61.0066 93.7889 59.9907 92.7731 58.7377 92.7731C57.4846 92.7731 56.4688 93.7889 56.4688 95.042C56.4688 96.2951 57.4846 97.3109 58.7377 97.3109Z" fill="#6F00FB"/>
<path d="M64.7884 97.3109C66.0415 97.3109 67.0573 96.2951 67.0573 95.042C67.0573 93.7889 66.0415 92.7731 64.7884 92.7731C63.5354 92.7731 62.5195 93.7889 62.5195 95.042C62.5195 96.2951 63.5354 97.3109 64.7884 97.3109Z" fill="#6F00FB"/>
<path d="M70.8392 97.3109C72.0923 97.3109 73.1081 96.2951 73.1081 95.042C73.1081 93.7889 72.0923 92.7731 70.8392 92.7731C69.5861 92.7731 68.5703 93.7889 68.5703 95.042C68.5703 96.2951 69.5861 97.3109 70.8392 97.3109Z" fill="#6F00FB"/>
<path d="M76.89 97.3109C78.1431 97.3109 79.1589 96.2951 79.1589 95.042C79.1589 93.7889 78.1431 92.7731 76.89 92.7731C75.6369 92.7731 74.6211 93.7889 74.6211 95.042C74.6211 96.2951 75.6369 97.3109 76.89 97.3109Z" fill="#6F00FB"/>
<path d="M95.0423 97.3109C96.2954 97.3109 97.3113 96.2951 97.3113 95.042C97.3113 93.7889 96.2954 92.7731 95.0423 92.7731C93.7893 92.7731 92.7734 93.7889 92.7734 95.042C92.7734 96.2951 93.7893 97.3109 95.0423 97.3109Z" fill="#6F00FB"/>
<path d="M107.144 97.3109C108.397 97.3109 109.413 96.2951 109.413 95.042C109.413 93.7889 108.397 92.7731 107.144 92.7731C105.891 92.7731 104.875 93.7889 104.875 95.042C104.875 96.2951 105.891 97.3109 107.144 97.3109Z" fill="#6F00FB"/>
<path d="M113.195 97.3109C114.448 97.3109 115.464 96.2951 115.464 95.042C115.464 93.7889 114.448 92.7731 113.195 92.7731C111.942 92.7731 110.926 93.7889 110.926 95.042C110.926 96.2951 111.942 97.3109 113.195 97.3109Z" fill="#6F00FB"/>
<path d="M119.245 97.3109C120.499 97.3109 121.514 96.2951 121.514 95.042C121.514 93.7889 120.499 92.7731 119.245 92.7731C117.992 92.7731 116.977 93.7889 116.977 95.042C116.977 96.2951 117.992 97.3109 119.245 97.3109Z" fill="#6F00FB"/>
<path d="M131.343 97.3109C132.596 97.3109 133.612 96.2951 133.612 95.042C133.612 93.7889 132.596 92.7731 131.343 92.7731C130.09 92.7731 129.074 93.7889 129.074 95.042C129.074 96.2951 130.09 97.3109 131.343 97.3109Z" fill="#6F00FB"/>
<path d="M149.495 97.3109C150.749 97.3109 151.764 96.2951 151.764 95.042C151.764 93.7889 150.749 92.7731 149.495 92.7731C148.242 92.7731 147.227 93.7889 147.227 95.042C147.227 96.2951 148.242 97.3109 149.495 97.3109Z" fill="#6F00FB"/>
<path d="M161.597 97.3109C162.85 97.3109 163.866 96.2951 163.866 95.042C163.866 93.7889 162.85 92.7731 161.597 92.7731C160.344 92.7731 159.328 93.7889 159.328 95.042C159.328 96.2951 160.344 97.3109 161.597 97.3109Z" fill="#6F00FB"/>
<path d="M16.3861 103.361C17.6392 103.361 18.655 102.345 18.655 101.092C18.655 99.8393 17.6392 98.8235 16.3861 98.8235C15.133 98.8235 14.1172 99.8393 14.1172 101.092C14.1172 102.345 15.133 103.361 16.3861 103.361Z" fill="#6F00FB"/>
<path d="M28.4877 103.361C29.7407 103.361 30.7566 102.345 30.7566 101.092C30.7566 99.8393 29.7407 98.8235 28.4877 98.8235C27.2346 98.8235 26.2188 99.8393 26.2188 101.092C26.2188 102.345 27.2346 103.361 28.4877 103.361Z" fill="#6F00FB"/>
<path d="M34.5384 103.361C35.7915 103.361 36.8073 102.345 36.8073 101.092C36.8073 99.8393 35.7915 98.8235 34.5384 98.8235C33.2854 98.8235 32.2695 99.8393 32.2695 101.092C32.2695 102.345 33.2854 103.361 34.5384 103.361Z" fill="#6F00FB"/>
<path d="M40.5892 103.361C41.8423 103.361 42.8581 102.345 42.8581 101.092C42.8581 99.8393 41.8423 98.8235 40.5892 98.8235C39.3361 98.8235 38.3203 99.8393 38.3203 101.092C38.3203 102.345 39.3361 103.361 40.5892 103.361Z" fill="#6F00FB"/>
<path d="M46.64 103.361C47.8931 103.361 48.9089 102.345 48.9089 101.092C48.9089 99.8393 47.8931 98.8235 46.64 98.8235C45.3869 98.8235 44.3711 99.8393 44.3711 101.092C44.3711 102.345 45.3869 103.361 46.64 103.361Z" fill="#6F00FB"/>
<path d="M52.6908 103.361C53.9439 103.361 54.9597 102.345 54.9597 101.092C54.9597 99.8393 53.9439 98.8235 52.6908 98.8235C51.4377 98.8235 50.4219 99.8393 50.4219 101.092C50.4219 102.345 51.4377 103.361 52.6908 103.361Z" fill="#6F00FB"/>
<path d="M70.8392 103.361C72.0923 103.361 73.1081 102.345 73.1081 101.092C73.1081 99.8393 72.0923 98.8235 70.8392 98.8235C69.5861 98.8235 68.5703 99.8393 68.5703 101.092C68.5703 102.345 69.5861 103.361 70.8392 103.361Z" fill="#6F00FB"/>
<path d="M88.9916 103.361C90.2446 103.361 91.2605 102.345 91.2605 101.092C91.2605 99.8393 90.2446 98.8235 88.9916 98.8235C87.7385 98.8235 86.7227 99.8393 86.7227 101.092C86.7227 102.345 87.7385 103.361 88.9916 103.361Z" fill="#6F00FB"/>
<path d="M149.495 103.361C150.749 103.361 151.764 102.345 151.764 101.092C151.764 99.8393 150.749 98.8235 149.495 98.8235C148.242 98.8235 147.227 99.8393 147.227 101.092C147.227 102.345 148.242 103.361 149.495 103.361Z" fill="#6F00FB"/>
<path d="M161.597 103.361C162.85 103.361 163.866 102.345 163.866 101.092C163.866 99.8393 162.85 98.8235 161.597 98.8235C160.344 98.8235 159.328 99.8393 159.328 101.092C159.328 102.345 160.344 103.361 161.597 103.361Z" fill="#6F00FB"/>
<path d="M4.28453 109.412C5.53762 109.412 6.55344 108.396 6.55344 107.143C6.55344 105.89 5.53762 104.874 4.28453 104.874C3.03145 104.874 2.01562 105.89 2.01562 107.143C2.01562 108.396 3.03145 109.412 4.28453 109.412Z" fill="#6F00FB"/>
<path d="M22.4369 109.412C23.69 109.412 24.7058 108.396 24.7058 107.143C24.7058 105.89 23.69 104.874 22.4369 104.874C21.1838 104.874 20.168 105.89 20.168 107.143C20.168 108.396 21.1838 109.412 22.4369 109.412Z" fill="#6F00FB"/>
<path d="M52.6908 109.412C53.9439 109.412 54.9597 108.396 54.9597 107.143C54.9597 105.89 53.9439 104.874 52.6908 104.874C51.4377 104.874 50.4219 105.89 50.4219 107.143C50.4219 108.396 51.4377 109.412 52.6908 109.412Z" fill="#6F00FB"/>
<path d="M58.7377 109.412C59.9907 109.412 61.0066 108.396 61.0066 107.143C61.0066 105.89 59.9907 104.874 58.7377 104.874C57.4846 104.874 56.4688 105.89 56.4688 107.143C56.4688 108.396 57.4846 109.412 58.7377 109.412Z" fill="#6F00FB"/>
<path d="M64.7884 109.412C66.0415 109.412 67.0573 108.396 67.0573 107.143C67.0573 105.89 66.0415 104.874 64.7884 104.874C63.5354 104.874 62.5195 105.89 62.5195 107.143C62.5195 108.396 63.5354 109.412 64.7884 109.412Z" fill="#6F00FB"/>
<path d="M70.8392 109.412C72.0923 109.412 73.1081 108.396 73.1081 107.143C73.1081 105.89 72.0923 104.874 70.8392 104.874C69.5861 104.874 68.5703 105.89 68.5703 107.143C68.5703 108.396 69.5861 109.412 70.8392 109.412Z" fill="#6F00FB"/>
<path d="M82.9408 109.412C84.1939 109.412 85.2097 108.396 85.2097 107.143C85.2097 105.89 84.1939 104.874 82.9408 104.874C81.6877 104.874 80.6719 105.89 80.6719 107.143C80.6719 108.396 81.6877 109.412 82.9408 109.412Z" fill="#6F00FB"/>
<path d="M88.9916 109.412C90.2446 109.412 91.2605 108.396 91.2605 107.143C91.2605 105.89 90.2446 104.874 88.9916 104.874C87.7385 104.874 86.7227 105.89 86.7227 107.143C86.7227 108.396 87.7385 109.412 88.9916 109.412Z" fill="#6F00FB"/>
<path d="M101.093 109.412C102.346 109.412 103.362 108.396 103.362 107.143C103.362 105.89 102.346 104.874 101.093 104.874C99.84 104.874 98.8242 105.89 98.8242 107.143C98.8242 108.396 99.84 109.412 101.093 109.412Z" fill="#6F00FB"/>
<path d="M107.144 109.412C108.397 109.412 109.413 108.396 109.413 107.143C109.413 105.89 108.397 104.874 107.144 104.874C105.891 104.874 104.875 105.89 104.875 107.143C104.875 108.396 105.891 109.412 107.144 109.412Z" fill="#6F00FB"/>
<path d="M137.394 109.412C138.647 109.412 139.663 108.396 139.663 107.143C139.663 105.89 138.647 104.874 137.394 104.874C136.141 104.874 135.125 105.89 135.125 107.143C135.125 108.396 136.141 109.412 137.394 109.412Z" fill="#6F00FB"/>
<path d="M155.546 109.412C156.799 109.412 157.815 108.396 157.815 107.143C157.815 105.89 156.799 104.874 155.546 104.874C154.293 104.874 153.277 105.89 153.277 107.143C153.277 108.396 154.293 109.412 155.546 109.412Z" fill="#6F00FB"/>
<path d="M4.28453 115.462C5.53762 115.462 6.55344 114.446 6.55344 113.193C6.55344 111.94 5.53762 110.924 4.28453 110.924C3.03145 110.924 2.01562 111.94 2.01562 113.193C2.01562 114.446 3.03145 115.462 4.28453 115.462Z" fill="#6F00FB"/>
<path d="M10.3353 115.462C11.5884 115.462 12.6042 114.446 12.6042 113.193C12.6042 111.94 11.5884 110.924 10.3353 110.924C9.08223 110.924 8.06641 111.94 8.06641 113.193C8.06641 114.446 9.08223 115.462 10.3353 115.462Z" fill="#6F00FB"/>
<path d="M16.3861 115.462C17.6392 115.462 18.655 114.446 18.655 113.193C18.655 111.94 17.6392 110.924 16.3861 110.924C15.133 110.924 14.1172 111.94 14.1172 113.193C14.1172 114.446 15.133 115.462 16.3861 115.462Z" fill="#6F00FB"/>
<path d="M22.4369 115.462C23.69 115.462 24.7058 114.446 24.7058 113.193C24.7058 111.94 23.69 110.924 22.4369 110.924C21.1838 110.924 20.168 111.94 20.168 113.193C20.168 114.446 21.1838 115.462 22.4369 115.462Z" fill="#6F00FB"/>
<path d="M40.5892 115.462C41.8423 115.462 42.8581 114.446 42.8581 113.193C42.8581 111.94 41.8423 110.924 40.5892 110.924C39.3361 110.924 38.3203 111.94 38.3203 113.193C38.3203 114.446 39.3361 115.462 40.5892 115.462Z" fill="#6F00FB"/>
<path d="M64.7884 115.462C66.0415 115.462 67.0573 114.446 67.0573 113.193C67.0573 111.94 66.0415 110.924 64.7884 110.924C63.5354 110.924 62.5195 111.94 62.5195 113.193C62.5195 114.446 63.5354 115.462 64.7884 115.462Z" fill="#6F00FB"/>
<path d="M70.8392 115.462C72.0923 115.462 73.1081 114.446 73.1081 113.193C73.1081 111.94 72.0923 110.924 70.8392 110.924C69.5861 110.924 68.5703 111.94 68.5703 113.193C68.5703 114.446 69.5861 115.462 70.8392 115.462Z" fill="#6F00FB"/>
<path d="M76.89 115.462C78.1431 115.462 79.1589 114.446 79.1589 113.193C79.1589 111.94 78.1431 110.924 76.89 110.924C75.6369 110.924 74.6211 111.94 74.6211 113.193C74.6211 114.446 75.6369 115.462 76.89 115.462Z" fill="#6F00FB"/>
<path d="M95.0423 115.462C96.2954 115.462 97.3113 114.446 97.3113 113.193C97.3113 111.94 96.2954 110.924 95.0423 110.924C93.7893 110.924 92.7734 111.94 92.7734 113.193C92.7734 114.446 93.7893 115.462 95.0423 115.462Z" fill="#6F00FB"/>
<path d="M101.093 115.462C102.346 115.462 103.362 114.446 103.362 113.193C103.362 111.94 102.346 110.924 101.093 110.924C99.84 110.924 98.8242 111.94 98.8242 113.193C98.8242 114.446 99.84 115.462 101.093 115.462Z" fill="#6F00FB"/>
<path d="M113.195 115.462C114.448 115.462 115.464 114.446 115.464 113.193C115.464 111.94 114.448 110.924 113.195 110.924C111.942 110.924 110.926 111.94 110.926 113.193C110.926 114.446 111.942 115.462 113.195 115.462Z" fill="#6F00FB"/>
<path d="M119.245 115.462C120.499 115.462 121.514 114.446 121.514 113.193C121.514 111.94 120.499 110.924 119.245 110.924C117.992 110.924 116.977 111.94 116.977 113.193C116.977 114.446 117.992 115.462 119.245 115.462Z" fill="#6F00FB"/>
<path d="M125.292 115.462C126.545 115.462 127.561 114.446 127.561 113.193C127.561 111.94 126.545 110.924 125.292 110.924C124.039 110.924 123.023 111.94 123.023 113.193C123.023 114.446 124.039 115.462 125.292 115.462Z" fill="#6F00FB"/>
<path d="M137.394 115.462C138.647 115.462 139.663 114.446 139.663 113.193C139.663 111.94 138.647 110.924 137.394 110.924C136.141 110.924 135.125 111.94 135.125 113.193C135.125 114.446 136.141 115.462 137.394 115.462Z" fill="#6F00FB"/>
<path d="M143.445 115.462C144.698 115.462 145.714 114.446 145.714 113.193C145.714 111.94 144.698 110.924 143.445 110.924C142.192 110.924 141.176 111.94 141.176 113.193C141.176 114.446 142.192 115.462 143.445 115.462Z" fill="#6F00FB"/>
<path d="M4.28453 121.513C5.53762 121.513 6.55344 120.497 6.55344 119.244C6.55344 117.991 5.53762 116.975 4.28453 116.975C3.03145 116.975 2.01562 117.991 2.01562 119.244C2.01562 120.497 3.03145 121.513 4.28453 121.513Z" fill="#6F00FB"/>
<path d="M10.3353 121.513C11.5884 121.513 12.6042 120.497 12.6042 119.244C12.6042 117.991 11.5884 116.975 10.3353 116.975C9.08223 116.975 8.06641 117.991 8.06641 119.244C8.06641 120.497 9.08223 121.513 10.3353 121.513Z" fill="#6F00FB"/>
<path d="M28.4877 121.513C29.7407 121.513 30.7566 120.497 30.7566 119.244C30.7566 117.991 29.7407 116.975 28.4877 116.975C27.2346 116.975 26.2188 117.991 26.2188 119.244C26.2188 120.497 27.2346 121.513 28.4877 121.513Z" fill="#6F00FB"/>
<path d="M34.5384 121.513C35.7915 121.513 36.8073 120.497 36.8073 119.244C36.8073 117.991 35.7915 116.975 34.5384 116.975C33.2854 116.975 32.2695 117.991 32.2695 119.244C32.2695 120.497 33.2854 121.513 34.5384 121.513Z" fill="#6F00FB"/>
<path d="M52.6908 121.513C53.9439 121.513 54.9597 120.497 54.9597 119.244C54.9597 117.991 53.9439 116.975 52.6908 116.975C51.4377 116.975 50.4219 117.991 50.4219 119.244C50.4219 120.497 51.4377 121.513 52.6908 121.513Z" fill="#6F00FB"/>
<path d="M58.7377 121.513C59.9907 121.513 61.0066 120.497 61.0066 119.244C61.0066 117.991 59.9907 116.975 58.7377 116.975C57.4846 116.975 56.4688 117.991 56.4688 119.244C56.4688 120.497 57.4846 121.513 58.7377 121.513Z" fill="#6F00FB"/>
<path d="M70.8392 121.513C72.0923 121.513 73.1081 120.497 73.1081 119.244C73.1081 117.991 72.0923 116.975 70.8392 116.975C69.5861 116.975 68.5703 117.991 68.5703 119.244C68.5703 120.497 69.5861 121.513 70.8392 121.513Z" fill="#6F00FB"/>
<path d="M76.89 121.513C78.1431 121.513 79.1589 120.497 79.1589 119.244C79.1589 117.991 78.1431 116.975 76.89 116.975C75.6369 116.975 74.6211 117.991 74.6211 119.244C74.6211 120.497 75.6369 121.513 76.89 121.513Z" fill="#6F00FB"/>
<path d="M88.9916 121.513C90.2446 121.513 91.2605 120.497 91.2605 119.244C91.2605 117.991 90.2446 116.975 88.9916 116.975C87.7385 116.975 86.7227 117.991 86.7227 119.244C86.7227 120.497 87.7385 121.513 88.9916 121.513Z" fill="#6F00FB"/>
<path d="M137.394 121.513C138.647 121.513 139.663 120.497 139.663 119.244C139.663 117.991 138.647 116.975 137.394 116.975C136.141 116.975 135.125 117.991 135.125 119.244C135.125 120.497 136.141 121.513 137.394 121.513Z" fill="#6F00FB"/>
<path d="M143.445 121.513C144.698 121.513 145.714 120.497 145.714 119.244C145.714 117.991 144.698 116.975 143.445 116.975C142.192 116.975 141.176 117.991 141.176 119.244C141.176 120.497 142.192 121.513 143.445 121.513Z" fill="#6F00FB"/>
<path d="M149.495 121.513C150.749 121.513 151.764 120.497 151.764 119.244C151.764 117.991 150.749 116.975 149.495 116.975C148.242 116.975 147.227 117.991 147.227 119.244C147.227 120.497 148.242 121.513 149.495 121.513Z" fill="#6F00FB"/>
<path d="M155.546 121.513C156.799 121.513 157.815 120.497 157.815 119.244C157.815 117.991 156.799 116.975 155.546 116.975C154.293 116.975 153.277 117.991 153.277 119.244C153.277 120.497 154.293 121.513 155.546 121.513Z" fill="#6F00FB"/>
<path d="M161.597 121.513C162.85 121.513 163.866 120.497 163.866 119.244C163.866 117.991 162.85 116.975 161.597 116.975C160.344 116.975 159.328 117.991 159.328 119.244C159.328 120.497 160.344 121.513 161.597 121.513Z" fill="#6F00FB"/>
<path d="M167.648 121.513C168.901 121.513 169.917 120.497 169.917 119.244C169.917 117.991 168.901 116.975 167.648 116.975C166.395 116.975 165.379 117.991 165.379 119.244C165.379 120.497 166.395 121.513 167.648 121.513Z" fill="#6F00FB"/>
<path d="M4.28453 127.563C5.53762 127.563 6.55344 126.547 6.55344 125.294C6.55344 124.041 5.53762 123.025 4.28453 123.025C3.03145 123.025 2.01562 124.041 2.01562 125.294C2.01562 126.547 3.03145 127.563 4.28453 127.563Z" fill="#6F00FB"/>
<path d="M10.3353 127.563C11.5884 127.563 12.6042 126.547 12.6042 125.294C12.6042 124.041 11.5884 123.025 10.3353 123.025C9.08223 123.025 8.06641 124.041 8.06641 125.294C8.06641 126.547 9.08223 127.563 10.3353 127.563Z" fill="#6F00FB"/>
<path d="M22.4369 127.563C23.69 127.563 24.7058 126.547 24.7058 125.294C24.7058 124.041 23.69 123.025 22.4369 123.025C21.1838 123.025 20.168 124.041 20.168 125.294C20.168 126.547 21.1838 127.563 22.4369 127.563Z" fill="#6F00FB"/>
<path d="M28.4877 127.563C29.7407 127.563 30.7566 126.547 30.7566 125.294C30.7566 124.041 29.7407 123.025 28.4877 123.025C27.2346 123.025 26.2188 124.041 26.2188 125.294C26.2188 126.547 27.2346 127.563 28.4877 127.563Z" fill="#6F00FB"/>
<path d="M40.5892 127.563C41.8423 127.563 42.8581 126.547 42.8581 125.294C42.8581 124.041 41.8423 123.025 40.5892 123.025C39.3361 123.025 38.3203 124.041 38.3203 125.294C38.3203 126.547 39.3361 127.563 40.5892 127.563Z" fill="#6F00FB"/>
<path d="M52.6908 127.563C53.9439 127.563 54.9597 126.547 54.9597 125.294C54.9597 124.041 53.9439 123.025 52.6908 123.025C51.4377 123.025 50.4219 124.041 50.4219 125.294C50.4219 126.547 51.4377 127.563 52.6908 127.563Z" fill="#6F00FB"/>
<path d="M58.7377 127.563C59.9907 127.563 61.0066 126.547 61.0066 125.294C61.0066 124.041 59.9907 123.025 58.7377 123.025C57.4846 123.025 56.4688 124.041 56.4688 125.294C56.4688 126.547 57.4846 127.563 58.7377 127.563Z" fill="#6F00FB"/>
<path d="M64.7884 127.563C66.0415 127.563 67.0573 126.547 67.0573 125.294C67.0573 124.041 66.0415 123.025 64.7884 123.025C63.5354 123.025 62.5195 124.041 62.5195 125.294C62.5195 126.547 63.5354 127.563 64.7884 127.563Z" fill="#6F00FB"/>
<path d="M76.89 127.563C78.1431 127.563 79.1589 126.547 79.1589 125.294C79.1589 124.041 78.1431 123.025 76.89 123.025C75.6369 123.025 74.6211 124.041 74.6211 125.294C74.6211 126.547 75.6369 127.563 76.89 127.563Z" fill="#6F00FB"/>
<path d="M82.9408 127.563C84.1939 127.563 85.2097 126.547 85.2097 125.294C85.2097 124.041 84.1939 123.025 82.9408 123.025C81.6877 123.025 80.6719 124.041 80.6719 125.294C80.6719 126.547 81.6877 127.563 82.9408 127.563Z" fill="#6F00FB"/>
<path d="M88.9916 127.563C90.2446 127.563 91.2605 126.547 91.2605 125.294C91.2605 124.041 90.2446 123.025 88.9916 123.025C87.7385 123.025 86.7227 124.041 86.7227 125.294C86.7227 126.547 87.7385 127.563 88.9916 127.563Z" fill="#6F00FB"/>
<path d="M95.0423 127.563C96.2954 127.563 97.3113 126.547 97.3113 125.294C97.3113 124.041 96.2954 123.025 95.0423 123.025C93.7893 123.025 92.7734 124.041 92.7734 125.294C92.7734 126.547 93.7893 127.563 95.0423 127.563Z" fill="#6F00FB"/>
<path d="M101.093 127.563C102.346 127.563 103.362 126.547 103.362 125.294C103.362 124.041 102.346 123.025 101.093 123.025C99.84 123.025 98.8242 124.041 98.8242 125.294C98.8242 126.547 99.84 127.563 101.093 127.563Z" fill="#6F00FB"/>
<path d="M113.195 127.563C114.448 127.563 115.464 126.547 115.464 125.294C115.464 124.041 114.448 123.025 113.195 123.025C111.942 123.025 110.926 124.041 110.926 125.294C110.926 126.547 111.942 127.563 113.195 127.563Z" fill="#6F00FB"/>
<path d="M119.245 127.563C120.499 127.563 121.514 126.547 121.514 125.294C121.514 124.041 120.499 123.025 119.245 123.025C117.992 123.025 116.977 124.041 116.977 125.294C116.977 126.547 117.992 127.563 119.245 127.563Z" fill="#6F00FB"/>
<path d="M125.292 127.563C126.545 127.563 127.561 126.547 127.561 125.294C127.561 124.041 126.545 123.025 125.292 123.025C124.039 123.025 123.023 124.041 123.023 125.294C123.023 126.547 124.039 127.563 125.292 127.563Z" fill="#6F00FB"/>
<path d="M131.343 127.563C132.596 127.563 133.612 126.547 133.612 125.294C133.612 124.041 132.596 123.025 131.343 123.025C130.09 123.025 129.074 124.041 129.074 125.294C129.074 126.547 130.09 127.563 131.343 127.563Z" fill="#6F00FB"/>
<path d="M137.394 127.563C138.647 127.563 139.663 126.547 139.663 125.294C139.663 124.041 138.647 123.025 137.394 123.025C136.141 123.025 135.125 124.041 135.125 125.294C135.125 126.547 136.141 127.563 137.394 127.563Z" fill="#6F00FB"/>
<path d="M143.445 127.563C144.698 127.563 145.714 126.547 145.714 125.294C145.714 124.041 144.698 123.025 143.445 123.025C142.192 123.025 141.176 124.041 141.176 125.294C141.176 126.547 142.192 127.563 143.445 127.563Z" fill="#6F00FB"/>
<path d="M149.495 127.563C150.749 127.563 151.764 126.547 151.764 125.294C151.764 124.041 150.749 123.025 149.495 123.025C148.242 123.025 147.227 124.041 147.227 125.294C147.227 126.547 148.242 127.563 149.495 127.563Z" fill="#6F00FB"/>
<path d="M161.597 127.563C162.85 127.563 163.866 126.547 163.866 125.294C163.866 124.041 162.85 123.025 161.597 123.025C160.344 123.025 159.328 124.041 159.328 125.294C159.328 126.547 160.344 127.563 161.597 127.563Z" fill="#6F00FB"/>
<path d="M167.648 127.563C168.901 127.563 169.917 126.547 169.917 125.294C169.917 124.041 168.901 123.025 167.648 123.025C166.395 123.025 165.379 124.041 165.379 125.294C165.379 126.547 166.395 127.563 167.648 127.563Z" fill="#6F00FB"/>
<path d="M173.699 127.563C174.952 127.563 175.968 126.547 175.968 125.294C175.968 124.041 174.952 123.025 173.699 123.025C172.446 123.025 171.43 124.041 171.43 125.294C171.43 126.547 172.446 127.563 173.699 127.563Z" fill="#6F00FB"/>
<path d="M52.6908 133.613C53.9439 133.613 54.9597 132.598 54.9597 131.345C54.9597 130.092 53.9439 129.076 52.6908 129.076C51.4377 129.076 50.4219 130.092 50.4219 131.345C50.4219 132.598 51.4377 133.613 52.6908 133.613Z" fill="#6F00FB"/>
<path d="M70.8392 133.613C72.0923 133.613 73.1081 132.598 73.1081 131.345C73.1081 130.092 72.0923 129.076 70.8392 129.076C69.5861 129.076 68.5703 130.092 68.5703 131.345C68.5703 132.598 69.5861 133.613 70.8392 133.613Z" fill="#6F00FB"/>
<path d="M88.9916 133.613C90.2446 133.613 91.2605 132.598 91.2605 131.345C91.2605 130.092 90.2446 129.076 88.9916 129.076C87.7385 129.076 86.7227 130.092 86.7227 131.345C86.7227 132.598 87.7385 133.613 88.9916 133.613Z" fill="#6F00FB"/>
<path d="M125.292 133.613C126.545 133.613 127.561 132.598 127.561 131.345C127.561 130.092 126.545 129.076 125.292 129.076C124.039 129.076 123.023 130.092 123.023 131.345C123.023 132.598 124.039 133.613 125.292 133.613Z" fill="#6F00FB"/>
<path d="M149.495 133.613C150.749 133.613 151.764 132.598 151.764 131.345C151.764 130.092 150.749 129.076 149.495 129.076C148.242 129.076 147.227 130.092 147.227 131.345C147.227 132.598 148.242 133.613 149.495 133.613Z" fill="#6F00FB"/>
<path d="M161.597 133.613C162.85 133.613 163.866 132.598 163.866 131.345C163.866 130.092 162.85 129.076 161.597 129.076C160.344 129.076 159.328 130.092 159.328 131.345C159.328 132.598 160.344 133.613 161.597 133.613Z" fill="#6F00FB"/>
<path d="M173.699 133.613C174.952 133.613 175.968 132.598 175.968 131.345C175.968 130.092 174.952 129.076 173.699 129.076C172.446 129.076 171.43 130.092 171.43 131.345C171.43 132.598 172.446 133.613 173.699 133.613Z" fill="#6F00FB"/>
<path d="M52.6908 139.664C53.9439 139.664 54.9597 138.648 54.9597 137.395C54.9597 136.142 53.9439 135.126 52.6908 135.126C51.4377 135.126 50.4219 136.142 50.4219 137.395C50.4219 138.648 51.4377 139.664 52.6908 139.664Z" fill="#6F00FB"/>
<path d="M88.9916 139.664C90.2446 139.664 91.2605 138.648 91.2605 137.395C91.2605 136.142 90.2446 135.126 88.9916 135.126C87.7385 135.126 86.7227 136.142 86.7227 137.395C86.7227 138.648 87.7385 139.664 88.9916 139.664Z" fill="#6F00FB"/>
<path d="M95.0423 139.664C96.2954 139.664 97.3113 138.648 97.3113 137.395C97.3113 136.142 96.2954 135.126 95.0423 135.126C93.7893 135.126 92.7734 136.142 92.7734 137.395C92.7734 138.648 93.7893 139.664 95.0423 139.664Z" fill="#6F00FB"/>
<path d="M107.144 139.664C108.397 139.664 109.413 138.648 109.413 137.395C109.413 136.142 108.397 135.126 107.144 135.126C105.891 135.126 104.875 136.142 104.875 137.395C104.875 138.648 105.891 139.664 107.144 139.664Z" fill="#6F00FB"/>
<path d="M119.245 139.664C120.499 139.664 121.514 138.648 121.514 137.395C121.514 136.142 120.499 135.126 119.245 135.126C117.992 135.126 116.977 136.142 116.977 137.395C116.977 138.648 117.992 139.664 119.245 139.664Z" fill="#6F00FB"/>
<path d="M125.292 139.664C126.545 139.664 127.561 138.648 127.561 137.395C127.561 136.142 126.545 135.126 125.292 135.126C124.039 135.126 123.023 136.142 123.023 137.395C123.023 138.648 124.039 139.664 125.292 139.664Z" fill="#6F00FB"/>
<path d="M137.394 139.664C138.647 139.664 139.663 138.648 139.663 137.395C139.663 136.142 138.647 135.126 137.394 135.126C136.141 135.126 135.125 136.142 135.125 137.395C135.125 138.648 136.141 139.664 137.394 139.664Z" fill="#6F00FB"/>
<path d="M149.495 139.664C150.749 139.664 151.764 138.648 151.764 137.395C151.764 136.142 150.749 135.126 149.495 135.126C148.242 135.126 147.227 136.142 147.227 137.395C147.227 138.648 148.242 139.664 149.495 139.664Z" fill="#6F00FB"/>
<path d="M155.546 139.664C156.799 139.664 157.815 138.648 157.815 137.395C157.815 136.142 156.799 135.126 155.546 135.126C154.293 135.126 153.277 136.142 153.277 137.395C153.277 138.648 154.293 139.664 155.546 139.664Z" fill="#6F00FB"/>
<path d="M52.6908 145.714C53.9439 145.714 54.9597 144.699 54.9597 143.445C54.9597 142.192 53.9439 141.177 52.6908 141.177C51.4377 141.177 50.4219 142.192 50.4219 143.445C50.4219 144.699 51.4377 145.714 52.6908 145.714Z" fill="#6F00FB"/>
<path d="M70.8392 145.714C72.0923 145.714 73.1081 144.699 73.1081 143.445C73.1081 142.192 72.0923 141.177 70.8392 141.177C69.5861 141.177 68.5703 142.192 68.5703 143.445C68.5703 144.699 69.5861 145.714 70.8392 145.714Z" fill="#6F00FB"/>
<path d="M88.9916 145.714C90.2446 145.714 91.2605 144.699 91.2605 143.445C91.2605 142.192 90.2446 141.177 88.9916 141.177C87.7385 141.177 86.7227 142.192 86.7227 143.445C86.7227 144.699 87.7385 145.714 88.9916 145.714Z" fill="#6F00FB"/>
<path d="M107.144 145.714C108.397 145.714 109.413 144.699 109.413 143.445C109.413 142.192 108.397 141.177 107.144 141.177C105.891 141.177 104.875 142.192 104.875 143.445C104.875 144.699 105.891 145.714 107.144 145.714Z" fill="#6F00FB"/>
<path d="M119.245 145.714C120.499 145.714 121.514 144.699 121.514 143.445C121.514 142.192 120.499 141.177 119.245 141.177C117.992 141.177 116.977 142.192 116.977 143.445C116.977 144.699 117.992 145.714 119.245 145.714Z" fill="#6F00FB"/>
<path d="M125.292 145.714C126.545 145.714 127.561 144.699 127.561 143.445C127.561 142.192 126.545 141.177 125.292 141.177C124.039 141.177 123.023 142.192 123.023 143.445C123.023 144.699 124.039 145.714 125.292 145.714Z" fill="#6F00FB"/>
<path d="M149.495 145.714C150.749 145.714 151.764 144.699 151.764 143.445C151.764 142.192 150.749 141.177 149.495 141.177C148.242 141.177 147.227 142.192 147.227 143.445C147.227 144.699 148.242 145.714 149.495 145.714Z" fill="#6F00FB"/>
<path d="M161.597 145.714C162.85 145.714 163.866 144.699 163.866 143.445C163.866 142.192 162.85 141.177 161.597 141.177C160.344 141.177 159.328 142.192 159.328 143.445C159.328 144.699 160.344 145.714 161.597 145.714Z" fill="#6F00FB"/>
<path d="M52.6908 151.765C53.9439 151.765 54.9597 150.749 54.9597 149.496C54.9597 148.243 53.9439 147.227 52.6908 147.227C51.4377 147.227 50.4219 148.243 50.4219 149.496C50.4219 150.749 51.4377 151.765 52.6908 151.765Z" fill="#6F00FB"/>
<path d="M58.7377 151.765C59.9907 151.765 61.0066 150.749 61.0066 149.496C61.0066 148.243 59.9907 147.227 58.7377 147.227C57.4846 147.227 56.4688 148.243 56.4688 149.496C56.4688 150.749 57.4846 151.765 58.7377 151.765Z" fill="#6F00FB"/>
<path d="M64.7884 151.765C66.0415 151.765 67.0573 150.749 67.0573 149.496C67.0573 148.243 66.0415 147.227 64.7884 147.227C63.5354 147.227 62.5195 148.243 62.5195 149.496C62.5195 150.749 63.5354 151.765 64.7884 151.765Z" fill="#6F00FB"/>
<path d="M70.8392 151.765C72.0923 151.765 73.1081 150.749 73.1081 149.496C73.1081 148.243 72.0923 147.227 70.8392 147.227C69.5861 147.227 68.5703 148.243 68.5703 149.496C68.5703 150.749 69.5861 151.765 70.8392 151.765Z" fill="#6F00FB"/>
<path d="M76.89 151.765C78.1431 151.765 79.1589 150.749 79.1589 149.496C79.1589 148.243 78.1431 147.227 76.89 147.227C75.6369 147.227 74.6211 148.243 74.6211 149.496C74.6211 150.749 75.6369 151.765 76.89 151.765Z" fill="#6F00FB"/>
<path d="M82.9408 151.765C84.1939 151.765 85.2097 150.749 85.2097 149.496C85.2097 148.243 84.1939 147.227 82.9408 147.227C81.6877 147.227 80.6719 148.243 80.6719 149.496C80.6719 150.749 81.6877 151.765 82.9408 151.765Z" fill="#6F00FB"/>
<path d="M88.9916 151.765C90.2446 151.765 91.2605 150.749 91.2605 149.496C91.2605 148.243 90.2446 147.227 88.9916 147.227C87.7385 147.227 86.7227 148.243 86.7227 149.496C86.7227 150.749 87.7385 151.765 88.9916 151.765Z" fill="#6F00FB"/>
<path d="M95.0423 151.765C96.2954 151.765 97.3113 150.749 97.3113 149.496C97.3113 148.243 96.2954 147.227 95.0423 147.227C93.7893 147.227 92.7734 148.243 92.7734 149.496C92.7734 150.749 93.7893 151.765 95.0423 151.765Z" fill="#6F00FB"/>
<path d="M107.144 151.765C108.397 151.765 109.413 150.749 109.413 149.496C109.413 148.243 108.397 147.227 107.144 147.227C105.891 147.227 104.875 148.243 104.875 149.496C104.875 150.749 105.891 151.765 107.144 151.765Z" fill="#6F00FB"/>
<path d="M113.195 151.765C114.448 151.765 115.464 150.749 115.464 149.496C115.464 148.243 114.448 147.227 113.195 147.227C111.942 147.227 110.926 148.243 110.926 149.496C110.926 150.749 111.942 151.765 113.195 151.765Z" fill="#6F00FB"/>
<path d="M125.292 151.765C126.545 151.765 127.561 150.749 127.561 149.496C127.561 148.243 126.545 147.227 125.292 147.227C124.039 147.227 123.023 148.243 123.023 149.496C123.023 150.749 124.039 151.765 125.292 151.765Z" fill="#6F00FB"/>
<path d="M131.343 151.765C132.596 151.765 133.612 150.749 133.612 149.496C133.612 148.243 132.596 147.227 131.343 147.227C130.09 147.227 129.074 148.243 129.074 149.496C129.074 150.749 130.09 151.765 131.343 151.765Z" fill="#6F00FB"/>
<path d="M137.394 151.765C138.647 151.765 139.663 150.749 139.663 149.496C139.663 148.243 138.647 147.227 137.394 147.227C136.141 147.227 135.125 148.243 135.125 149.496C135.125 150.749 136.141 151.765 137.394 151.765Z" fill="#6F00FB"/>
<path d="M143.445 151.765C144.698 151.765 145.714 150.749 145.714 149.496C145.714 148.243 144.698 147.227 143.445 147.227C142.192 147.227 141.176 148.243 141.176 149.496C141.176 150.749 142.192 151.765 143.445 151.765Z" fill="#6F00FB"/>
<path d="M149.495 151.765C150.749 151.765 151.764 150.749 151.764 149.496C151.764 148.243 150.749 147.227 149.495 147.227C148.242 147.227 147.227 148.243 147.227 149.496C147.227 150.749 148.242 151.765 149.495 151.765Z" fill="#6F00FB"/>
<path d="M155.546 151.765C156.799 151.765 157.815 150.749 157.815 149.496C157.815 148.243 156.799 147.227 155.546 147.227C154.293 147.227 153.277 148.243 153.277 149.496C153.277 150.749 154.293 151.765 155.546 151.765Z" fill="#6F00FB"/>
<path d="M167.648 151.765C168.901 151.765 169.917 150.749 169.917 149.496C169.917 148.243 168.901 147.227 167.648 147.227C166.395 147.227 165.379 148.243 165.379 149.496C165.379 150.749 166.395 151.765 167.648 151.765Z" fill="#6F00FB"/>
<path d="M52.6908 157.815C53.9439 157.815 54.9597 156.799 54.9597 155.546C54.9597 154.293 53.9439 153.277 52.6908 153.277C51.4377 153.277 50.4219 154.293 50.4219 155.546C50.4219 156.799 51.4377 157.815 52.6908 157.815Z" fill="#6F00FB"/>
<path d="M64.7884 157.815C66.0415 157.815 67.0573 156.799 67.0573 155.546C67.0573 154.293 66.0415 153.277 64.7884 153.277C63.5354 153.277 62.5195 154.293 62.5195 155.546C62.5195 156.799 63.5354 157.815 64.7884 157.815Z" fill="#6F00FB"/>
<path d="M76.89 157.815C78.1431 157.815 79.1589 156.799 79.1589 155.546C79.1589 154.293 78.1431 153.277 76.89 153.277C75.6369 153.277 74.6211 154.293 74.6211 155.546C74.6211 156.799 75.6369 157.815 76.89 157.815Z" fill="#6F00FB"/>
<path d="M82.9408 157.815C84.1939 157.815 85.2097 156.799 85.2097 155.546C85.2097 154.293 84.1939 153.277 82.9408 153.277C81.6877 153.277 80.6719 154.293 80.6719 155.546C80.6719 156.799 81.6877 157.815 82.9408 157.815Z" fill="#6F00FB"/>
<path d="M113.195 157.815C114.448 157.815 115.464 156.799 115.464 155.546C115.464 154.293 114.448 153.277 113.195 153.277C111.942 153.277 110.926 154.293 110.926 155.546C110.926 156.799 111.942 157.815 113.195 157.815Z" fill="#6F00FB"/>
<path d="M119.245 157.815C120.499 157.815 121.514 156.799 121.514 155.546C121.514 154.293 120.499 153.277 119.245 153.277C117.992 153.277 116.977 154.293 116.977 155.546C116.977 156.799 117.992 157.815 119.245 157.815Z" fill="#6F00FB"/>
<path d="M131.343 157.815C132.596 157.815 133.612 156.799 133.612 155.546C133.612 154.293 132.596 153.277 131.343 153.277C130.09 153.277 129.074 154.293 129.074 155.546C129.074 156.799 130.09 157.815 131.343 157.815Z" fill="#6F00FB"/>
<path d="M143.445 157.815C144.698 157.815 145.714 156.799 145.714 155.546C145.714 154.293 144.698 153.277 143.445 153.277C142.192 153.277 141.176 154.293 141.176 155.546C141.176 156.799 142.192 157.815 143.445 157.815Z" fill="#6F00FB"/>
<path d="M155.546 157.815C156.799 157.815 157.815 156.799 157.815 155.546C157.815 154.293 156.799 153.277 155.546 153.277C154.293 153.277 153.277 154.293 153.277 155.546C153.277 156.799 154.293 157.815 155.546 157.815Z" fill="#6F00FB"/>
<path d="M161.597 157.815C162.85 157.815 163.866 156.799 163.866 155.546C163.866 154.293 162.85 153.277 161.597 153.277C160.344 153.277 159.328 154.293 159.328 155.546C159.328 156.799 160.344 157.815 161.597 157.815Z" fill="#6F00FB"/>
<path d="M167.648 157.815C168.901 157.815 169.917 156.799 169.917 155.546C169.917 154.293 168.901 153.277 167.648 153.277C166.395 153.277 165.379 154.293 165.379 155.546C165.379 156.799 166.395 157.815 167.648 157.815Z" fill="#6F00FB"/>
<path d="M58.7377 163.866C59.9907 163.866 61.0066 162.85 61.0066 161.597C61.0066 160.344 59.9907 159.328 58.7377 159.328C57.4846 159.328 56.4688 160.344 56.4688 161.597C56.4688 162.85 57.4846 163.866 58.7377 163.866Z" fill="#6F00FB"/>
<path d="M64.7884 163.866C66.0415 163.866 67.0573 162.85 67.0573 161.597C67.0573 160.344 66.0415 159.328 64.7884 159.328C63.5354 159.328 62.5195 160.344 62.5195 161.597C62.5195 162.85 63.5354 163.866 64.7884 163.866Z" fill="#6F00FB"/>
<path d="M88.9916 163.866C90.2446 163.866 91.2605 162.85 91.2605 161.597C91.2605 160.344 90.2446 159.328 88.9916 159.328C87.7385 159.328 86.7227 160.344 86.7227 161.597C86.7227 162.85 87.7385 163.866 88.9916 163.866Z" fill="#6F00FB"/>
<path d="M95.0423 163.866C96.2954 163.866 97.3113 162.85 97.3113 161.597C97.3113 160.344 96.2954 159.328 95.0423 159.328C93.7893 159.328 92.7734 160.344 92.7734 161.597C92.7734 162.85 93.7893 163.866 95.0423 163.866Z" fill="#6F00FB"/>
<path d="M107.144 163.866C108.397 163.866 109.413 162.85 109.413 161.597C109.413 160.344 108.397 159.328 107.144 159.328C105.891 159.328 104.875 160.344 104.875 161.597C104.875 162.85 105.891 163.866 107.144 163.866Z" fill="#6F00FB"/>
<path d="M113.195 163.866C114.448 163.866 115.464 162.85 115.464 161.597C115.464 160.344 114.448 159.328 113.195 159.328C111.942 159.328 110.926 160.344 110.926 161.597C110.926 162.85 111.942 163.866 113.195 163.866Z" fill="#6F00FB"/>
<path d="M137.394 163.866C138.647 163.866 139.663 162.85 139.663 161.597C139.663 160.344 138.647 159.328 137.394 159.328C136.141 159.328 135.125 160.344 135.125 161.597C135.125 162.85 136.141 163.866 137.394 163.866Z" fill="#6F00FB"/>
<path d="M143.445 163.866C144.698 163.866 145.714 162.85 145.714 161.597C145.714 160.344 144.698 159.328 143.445 159.328C142.192 159.328 141.176 160.344 141.176 161.597C141.176 162.85 142.192 163.866 143.445 163.866Z" fill="#6F00FB"/>
<path d="M155.546 163.866C156.799 163.866 157.815 162.85 157.815 161.597C157.815 160.344 156.799 159.328 155.546 159.328C154.293 159.328 153.277 160.344 153.277 161.597C153.277 162.85 154.293 163.866 155.546 163.866Z" fill="#6F00FB"/>
<path d="M161.597 163.866C162.85 163.866 163.866 162.85 163.866 161.597C163.866 160.344 162.85 159.328 161.597 159.328C160.344 159.328 159.328 160.344 159.328 161.597C159.328 162.85 160.344 163.866 161.597 163.866Z" fill="#6F00FB"/>
<path d="M167.648 163.866C168.901 163.866 169.917 162.85 169.917 161.597C169.917 160.344 168.901 159.328 167.648 159.328C166.395 159.328 165.379 160.344 165.379 161.597C165.379 162.85 166.395 163.866 167.648 163.866Z" fill="#6F00FB"/>
<path d="M173.699 163.866C174.952 163.866 175.968 162.85 175.968 161.597C175.968 160.344 174.952 159.328 173.699 159.328C172.446 159.328 171.43 160.344 171.43 161.597C171.43 162.85 172.446 163.866 173.699 163.866Z" fill="#6F00FB"/>
<path d="M70.8392 169.916C72.0923 169.916 73.1081 168.9 73.1081 167.647C73.1081 166.394 72.0923 165.378 70.8392 165.378C69.5861 165.378 68.5703 166.394 68.5703 167.647C68.5703 168.9 69.5861 169.916 70.8392 169.916Z" fill="#6F00FB"/>
<path d="M82.9408 169.916C84.1939 169.916 85.2097 168.9 85.2097 167.647C85.2097 166.394 84.1939 165.378 82.9408 165.378C81.6877 165.378 80.6719 166.394 80.6719 167.647C80.6719 168.9 81.6877 169.916 82.9408 169.916Z" fill="#6F00FB"/>
<path d="M88.9916 169.916C90.2446 169.916 91.2605 168.9 91.2605 167.647C91.2605 166.394 90.2446 165.378 88.9916 165.378C87.7385 165.378 86.7227 166.394 86.7227 167.647C86.7227 168.9 87.7385 169.916 88.9916 169.916Z" fill="#6F00FB"/>
<path d="M95.0423 169.916C96.2954 169.916 97.3113 168.9 97.3113 167.647C97.3113 166.394 96.2954 165.378 95.0423 165.378C93.7893 165.378 92.7734 166.394 92.7734 167.647C92.7734 168.9 93.7893 169.916 95.0423 169.916Z" fill="#6F00FB"/>
<path d="M107.144 169.916C108.397 169.916 109.413 168.9 109.413 167.647C109.413 166.394 108.397 165.378 107.144 165.378C105.891 165.378 104.875 166.394 104.875 167.647C104.875 168.9 105.891 169.916 107.144 169.916Z" fill="#6F00FB"/>
<path d="M137.394 169.916C138.647 169.916 139.663 168.9 139.663 167.647C139.663 166.394 138.647 165.378 137.394 165.378C136.141 165.378 135.125 166.394 135.125 167.647C135.125 168.9 136.141 169.916 137.394 169.916Z" fill="#6F00FB"/>
<path d="M155.546 169.916C156.799 169.916 157.815 168.9 157.815 167.647C157.815 166.394 156.799 165.378 155.546 165.378C154.293 165.378 153.277 166.394 153.277 167.647C153.277 168.9 154.293 169.916 155.546 169.916Z" fill="#6F00FB"/>
<path d="M167.648 169.916C168.901 169.916 169.917 168.9 169.917 167.647C169.917 166.394 168.901 165.378 167.648 165.378C166.395 165.378 165.379 166.394 165.379 167.647C165.379 168.9 166.395 169.916 167.648 169.916Z" fill="#6F00FB"/>
<path d="M52.6908 175.966C53.9439 175.966 54.9597 174.951 54.9597 173.697C54.9597 172.444 53.9439 171.429 52.6908 171.429C51.4377 171.429 50.4219 172.444 50.4219 173.697C50.4219 174.951 51.4377 175.966 52.6908 175.966Z" fill="#6F00FB"/>
<path d="M58.7377 175.966C59.9907 175.966 61.0066 174.951 61.0066 173.697C61.0066 172.444 59.9907 171.429 58.7377 171.429C57.4846 171.429 56.4688 172.444 56.4688 173.697C56.4688 174.951 57.4846 175.966 58.7377 175.966Z" fill="#6F00FB"/>
<path d="M70.8392 175.966C72.0923 175.966 73.1081 174.951 73.1081 173.697C73.1081 172.444 72.0923 171.429 70.8392 171.429C69.5861 171.429 68.5703 172.444 68.5703 173.697C68.5703 174.951 69.5861 175.966 70.8392 175.966Z" fill="#6F00FB"/>
<path d="M95.0423 175.966C96.2954 175.966 97.3113 174.951 97.3113 173.697C97.3113 172.444 96.2954 171.429 95.0423 171.429C93.7893 171.429 92.7734 172.444 92.7734 173.697C92.7734 174.951 93.7893 175.966 95.0423 175.966Z" fill="#6F00FB"/>
<path d="M107.144 175.966C108.397 175.966 109.413 174.951 109.413 173.697C109.413 172.444 108.397 171.429 107.144 171.429C105.891 171.429 104.875 172.444 104.875 173.697C104.875 174.951 105.891 175.966 107.144 175.966Z" fill="#6F00FB"/>
<path d="M113.195 175.966C114.448 175.966 115.464 174.951 115.464 173.697C115.464 172.444 114.448 171.429 113.195 171.429C111.942 171.429 110.926 172.444 110.926 173.697C110.926 174.951 111.942 175.966 113.195 175.966Z" fill="#6F00FB"/>
<path d="M119.245 175.966C120.499 175.966 121.514 174.951 121.514 173.697C121.514 172.444 120.499 171.429 119.245 171.429C117.992 171.429 116.977 172.444 116.977 173.697C116.977 174.951 117.992 175.966 119.245 175.966Z" fill="#6F00FB"/>
<path d="M131.343 175.966C132.596 175.966 133.612 174.951 133.612 173.697C133.612 172.444 132.596 171.429 131.343 171.429C130.09 171.429 129.074 172.444 129.074 173.697C129.074 174.951 130.09 175.966 131.343 175.966Z" fill="#6F00FB"/>
<path d="M137.394 175.966C138.647 175.966 139.663 174.951 139.663 173.697C139.663 172.444 138.647 171.429 137.394 171.429C136.141 171.429 135.125 172.444 135.125 173.697C135.125 174.951 136.141 175.966 137.394 175.966Z" fill="#6F00FB"/>
<path d="M143.445 175.966C144.698 175.966 145.714 174.951 145.714 173.697C145.714 172.444 144.698 171.429 143.445 171.429C142.192 171.429 141.176 172.444 141.176 173.697C141.176 174.951 142.192 175.966 143.445 175.966Z" fill="#6F00FB"/>
<path d="M149.495 175.966C150.749 175.966 151.764 174.951 151.764 173.697C151.764 172.444 150.749 171.429 149.495 171.429C148.242 171.429 147.227 172.444 147.227 173.697C147.227 174.951 148.242 175.966 149.495 175.966Z" fill="#6F00FB"/>
<path d="M155.546 175.966C156.799 175.966 157.815 174.951 157.815 173.697C157.815 172.444 156.799 171.429 155.546 171.429C154.293 171.429 153.277 172.444 153.277 173.697C153.277 174.951 154.293 175.966 155.546 175.966Z" fill="#6F00FB"/>
<path d="M23.1921 44.3698C34.8875 44.3698 44.3686 34.8888 44.3686 23.1933C44.3686 11.4979 34.8875 2.01685 23.1921 2.01685C11.4967 2.01685 2.01562 11.4979 2.01562 23.1933C2.01562 34.8888 11.4967 44.3698 23.1921 44.3698Z" fill="#6F00FB"/>
<path d="M23.1925 38.3194C31.5463 38.3194 38.3185 31.5472 38.3185 23.1933C38.3185 14.8394 31.5463 8.06726 23.1925 8.06726C14.8386 8.06726 8.06641 14.8394 8.06641 23.1933C8.06641 31.5472 14.8386 38.3194 23.1925 38.3194Z" fill="#F4F6FA"/>
<path d="M23.1928 32.2689C28.2051 32.2689 32.2684 28.2056 32.2684 23.1933C32.2684 18.181 28.2051 14.1177 23.1928 14.1177C18.1805 14.1177 14.1172 18.181 14.1172 23.1933C14.1172 28.2056 18.1805 32.2689 23.1928 32.2689Z" fill="#6F00FB"/>
<path d="M156.301 44.3698C167.997 44.3698 177.478 34.8888 177.478 23.1933C177.478 11.4979 167.997 2.01685 156.301 2.01685C144.606 2.01685 135.125 11.4979 135.125 23.1933C135.125 34.8888 144.606 44.3698 156.301 44.3698Z" fill="#6F00FB"/>
<path d="M156.302 38.3194C164.656 38.3194 171.428 31.5472 171.428 23.1933C171.428 14.8394 164.656 8.06726 156.302 8.06726C147.948 8.06726 141.176 14.8394 141.176 23.1933C141.176 31.5472 147.948 38.3194 156.302 38.3194Z" fill="#F4F6FA"/>
<path d="M156.302 32.2689C161.315 32.2689 165.378 28.2056 165.378 23.1933C165.378 18.181 161.315 14.1177 156.302 14.1177C151.29 14.1177 147.227 18.181 147.227 23.1933C147.227 28.2056 151.29 32.2689 156.302 32.2689Z" fill="#6F00FB"/>
<path d="M23.1921 177.479C34.8875 177.479 44.3686 167.998 44.3686 156.303C44.3686 144.607 34.8875 135.126 23.1921 135.126C11.4967 135.126 2.01562 144.607 2.01562 156.303C2.01562 167.998 11.4967 177.479 23.1921 177.479Z" fill="#6F00FB"/>
<path d="M23.1925 171.429C31.5463 171.429 38.3185 164.656 38.3185 156.303C38.3185 147.949 31.5463 141.177 23.1925 141.177C14.8386 141.177 8.06641 147.949 8.06641 156.303C8.06641 164.656 14.8386 171.429 23.1925 171.429Z" fill="#F4F6FA"/>
<path d="M23.1928 165.378C28.2051 165.378 32.2684 161.315 32.2684 156.303C32.2684 151.29 28.2051 147.227 23.1928 147.227C18.1805 147.227 14.1172 151.29 14.1172 156.303C14.1172 161.315 18.1805 165.378 23.1928 165.378Z" fill="#6F00FB"/>
</g>
<defs>
<clipPath id="clip0_345_3658">
<rect width="180" height="180" fill="white"/>
</clipPath>
</defs>
</svg>
