<svg viewBox="0 0 32 33" fill="none" xmlns="http://www.w3.org/2000/svg">
<path d="M16 16.9512C14.4875 16.9512 13.1927 16.4126 12.1156 15.3355C11.0385 14.2585 10.5 12.9637 10.5 11.4512C10.5 9.93867 11.0385 8.64388 12.1156 7.5668C13.1927 6.48971 14.4875 5.95117 16 5.95117C17.5125 5.95117 18.8073 6.48971 19.8844 7.5668C20.9615 8.64388 21.5 9.93867 21.5 11.4512C21.5 12.9637 20.9615 14.2585 19.8844 15.3355C18.8073 16.4126 17.5125 16.9512 16 16.9512ZM7.75 27.9512C6.99375 27.9512 6.34658 27.6821 5.8085 27.144C5.2695 26.605 5 25.9574 5 25.2012V24.1012C5 23.322 5.20075 22.6056 5.60225 21.952C6.00283 21.2994 6.53542 20.8012 7.2 20.4574C8.62083 19.747 10.0646 19.214 11.5312 18.8583C12.9979 18.5035 14.4875 18.3262 16 18.3262C17.5125 18.3262 19.0021 18.5035 20.4688 18.8583C21.9354 19.214 23.3792 19.747 24.8 20.4574C25.4646 20.8012 25.9972 21.2994 26.3978 21.952C26.7992 22.6056 27 23.322 27 24.1012V25.2012C27 25.9574 26.731 26.605 26.1929 27.144C25.6539 27.6821 25.0063 27.9512 24.25 27.9512H7.75Z" fill="#6F00FB"/>
</svg>
