<svg width="32" height="33" viewBox="0 0 32 33" fill="none" xmlns="http://www.w3.org/2000/svg">
<path d="M25 6.15137C25.9941 6.15137 26.7998 6.95706 26.7998 7.95117V25.9512C26.7998 26.9453 25.9941 27.751 25 27.751H7C6.00589 27.751 5.2002 26.9453 5.2002 25.9512V7.95117C5.2002 6.95706 6.00589 6.15137 7 6.15137H25ZM10 21.1514C9.55817 21.1514 9.2002 21.5093 9.2002 21.9512C9.2002 22.393 9.55817 22.751 10 22.751H18C18.4418 22.751 18.7998 22.393 18.7998 21.9512C18.7998 21.5093 18.4418 21.1514 18 21.1514H10ZM10 16.1514C9.55817 16.1514 9.2002 16.5093 9.2002 16.9512C9.2002 17.393 9.55817 17.751 10 17.751H21.5C21.9418 17.751 22.2998 17.393 22.2998 16.9512C22.2998 16.5093 21.9418 16.1514 21.5 16.1514H10ZM10 11.1514C9.55817 11.1514 9.2002 11.5093 9.2002 11.9512C9.2002 12.393 9.55817 12.751 10 12.751H21.5C21.9418 12.751 22.2998 12.393 22.2998 11.9512C22.2998 11.5093 21.9418 11.1514 21.5 11.1514H10Z" fill="#6F00FB"/>
</svg>
