<svg viewBox="0 0 32 33" fill="none" xmlns="http://www.w3.org/2000/svg">
<path d="M16.0005 5.7041C17.5926 5.70419 19.1066 6.27114 20.2222 7.41211C21.3365 8.55189 22.0737 10.2851 22.0737 12.6533V14.7139H23.3052C23.8914 14.7803 24.2963 14.9928 24.5601 15.333C24.8295 15.6808 24.9799 16.1978 24.98 16.9248V25.9756C24.98 26.795 24.7919 27.3381 24.4634 27.6777C24.1365 28.0155 23.6255 28.1982 22.8755 28.1982H9.12451C8.37444 28.1982 7.8635 28.0155 7.53662 27.6777C7.20807 27.3381 7.02002 26.795 7.02002 25.9756V16.9365C7.02007 16.2094 7.17067 15.702 7.43896 15.3623C7.70233 15.0288 8.10807 14.8213 8.69873 14.749H9.92725V12.6533C9.9273 10.2851 10.6636 8.55188 11.7778 7.41211C12.8934 6.27105 14.408 5.7041 16.0005 5.7041ZM16.0005 7.02246C14.7099 7.02246 13.5351 7.50122 12.6851 8.42383C11.8361 9.34555 11.3287 10.6901 11.3286 12.3926V14.751L11.5825 14.749L20.4204 14.7021L20.6714 14.7002V12.3926C20.6713 10.6901 20.164 9.34555 19.3149 8.42383C18.465 7.50131 17.2909 7.02256 16.0005 7.02246Z" fill="#6F00FB" stroke="#6F00FB" stroke-width="0.505433"/>
</svg>
