<svg  viewBox="0 0 24 24" fill="none" xmlns="http://www.w3.org/2000/svg">
<path fill-rule="evenodd" clip-rule="evenodd" d="M6.52736 2.40002C5.43296 2.40002 4.38337 2.83466 3.60937 3.60837C2.83536 4.38207 2.40032 5.4315 2.3999 6.5259V17.5324C2.3999 18.6271 2.83476 19.677 3.60881 20.451C4.38285 21.225 5.43269 21.6599 6.52736 21.6599H17.5339C18.6283 21.6595 19.6777 21.2244 20.4514 20.4504C21.2251 19.6764 21.6598 18.6268 21.6598 17.5324V6.5259C21.6594 5.43178 21.2245 4.38259 20.4509 3.60893C19.6772 2.83527 18.628 2.40044 17.5339 2.40002H6.52736ZM18.7211 6.53224C18.7211 6.84752 18.5959 7.14989 18.3729 7.37283C18.15 7.59577 17.8476 7.72102 17.5323 7.72102C17.217 7.72102 16.9147 7.59577 16.6917 7.37283C16.4688 7.14989 16.3435 6.84752 16.3435 6.53224C16.3435 6.21695 16.4688 5.91458 16.6917 5.69164C16.9147 5.4687 17.217 5.34345 17.5323 5.34345C17.8476 5.34345 18.15 5.4687 18.3729 5.69164C18.5959 5.91458 18.7211 6.21695 18.7211 6.53224ZM12.0322 8.73228C11.1578 8.73228 10.3193 9.07963 9.70096 9.69792C9.08268 10.3162 8.73533 11.1548 8.73533 12.0292C8.73533 12.9036 9.08268 13.7421 9.70096 14.3604C10.3193 14.9787 11.1578 15.3261 12.0322 15.3261C12.9066 15.3261 13.7452 14.9787 14.3635 14.3604C14.9818 13.7421 15.3291 12.9036 15.3291 12.0292C15.3291 11.1548 14.9818 10.3162 14.3635 9.69792C13.7452 9.07963 12.9066 8.73228 12.0322 8.73228ZM7.1487 12.0292C7.1487 10.7344 7.66304 9.49266 8.57858 8.57712C9.49412 7.66158 10.7359 7.14723 12.0306 7.14723C13.3254 7.14723 14.5671 7.66158 15.4827 8.57712C16.3982 9.49266 16.9126 10.7344 16.9126 12.0292C16.9126 13.3239 16.3982 14.5657 15.4827 15.4812C14.5671 16.3968 13.3254 16.9111 12.0306 16.9111C10.7359 16.9111 9.49412 16.3968 8.57858 15.4812C7.66304 14.5657 7.1487 13.3239 7.1487 12.0292Z" fill="currentColor"/>
</svg>
