<svg  viewBox="0 0 86 32" fill="none" xmlns="http://www.w3.org/2000/svg" >
<path d="M15.8438 0C24.5938 0.000127819 31.6875 7.0937 31.6875 15.8438C31.6874 24.5937 24.5937 31.6874 15.8438 31.6875C7.0937 31.6875 0.000127827 24.5938 0 15.8438C0 7.09362 7.09362 0 15.8438 0ZM8.36816 7.60449C8.19316 7.60449 8.05078 7.74687 8.05078 7.92188V24.3994C8.051 24.5742 8.1933 24.7158 8.36816 24.7158H13.0264C13.2261 24.7158 13.3774 24.5352 13.3408 24.3389C13.1415 23.269 12.5864 20.1213 12.4307 17.4922C13.5408 19.6198 15.7661 21.0731 18.332 21.0732C22.0071 21.0732 24.9863 18.094 24.9863 14.4189C24.9863 10.7439 22.0071 7.76465 18.332 7.76465C16.0962 7.76481 14.1186 8.86818 12.9121 10.5596C13.0817 9.42291 13.249 8.4789 13.3408 7.98242C13.3771 7.78622 13.2269 7.60451 13.0273 7.60449H8.36816Z" fill="currentColor"/>
<path d="M39.4109 25H36.1109V12.4249H39.4109V25ZM37.7609 10.2498C37.2109 10.2498 36.7359 10.0665 36.3359 9.69983C35.9525 9.31649 35.7609 8.85815 35.7609 8.32481C35.7609 7.75814 35.9525 7.29147 36.3359 6.9248C36.7359 6.55813 37.2109 6.37479 37.7609 6.37479C38.3276 6.37479 38.8026 6.56646 39.1859 6.9498C39.5692 7.31647 39.7609 7.77481 39.7609 8.32481C39.7609 8.85815 39.5692 9.31649 39.1859 9.69983C38.8026 10.0665 38.3276 10.2498 37.7609 10.2498ZM53.1866 21.075L54.9367 23.1C54.3033 23.8167 53.4866 24.3833 52.4866 24.8C51.5033 25.2 50.4116 25.4 49.2116 25.4C47.7616 25.4 46.4866 25.1167 45.3866 24.55C44.2865 23.9833 43.4282 23.2 42.8115 22.2C42.1949 21.2 41.8865 20.0416 41.8865 18.7249C41.8865 17.4082 42.1782 16.2499 42.7615 15.2499C43.3615 14.2332 44.1699 13.4415 45.1866 12.8749C46.2199 12.3082 47.3782 12.0249 48.6616 12.0249C49.9116 12.0249 51.02 12.3082 51.9866 12.8749C52.97 13.4249 53.7367 14.1915 54.2867 15.1749C54.8367 16.1582 55.1117 17.2999 55.1117 18.5999V18.7499H51.8866V18.3999C51.8866 17.6333 51.745 16.9666 51.4616 16.3999C51.195 15.8332 50.82 15.3916 50.3366 15.0749C49.8699 14.7582 49.3116 14.5999 48.6616 14.5999C47.9783 14.5999 47.3782 14.7666 46.8616 15.0999C46.3449 15.4166 45.9366 15.8832 45.6366 16.4999C45.3532 17.0999 45.2116 17.8166 45.2116 18.6499C45.2116 19.5333 45.3866 20.2916 45.7366 20.925C46.1032 21.5416 46.5949 22.0166 47.2116 22.35C47.8449 22.6666 48.5699 22.825 49.3866 22.825C50.8866 22.825 52.1533 22.2416 53.1866 21.075ZM55.1117 19.7249H44.0115V17.6249H54.7117L55.1117 18.5999V19.7249ZM67.4456 20.85L69.4956 22.85C68.8456 23.6667 68.0539 24.3 67.1206 24.75C66.2039 25.1833 65.1539 25.4 63.9706 25.4C62.6705 25.4 61.5039 25.1167 60.4705 24.55C59.4372 23.9667 58.6205 23.175 58.0205 22.175C57.4371 21.1583 57.1455 20.0083 57.1455 18.7249C57.1455 17.4249 57.4455 16.2749 58.0455 15.2749C58.6455 14.2582 59.4622 13.4665 60.4955 12.8999C61.5455 12.3165 62.7289 12.0249 64.0456 12.0249C65.1956 12.0249 66.2289 12.2499 67.1456 12.6999C68.0623 13.1332 68.8456 13.7499 69.4956 14.5499L67.4456 16.5749C67.0956 16.0416 66.6456 15.6082 66.0956 15.2749C65.5622 14.9416 64.9372 14.7749 64.2206 14.7749C63.5039 14.7749 62.8705 14.9416 62.3205 15.2749C61.7705 15.6082 61.3372 16.0749 61.0205 16.6749C60.7039 17.2749 60.5455 17.9583 60.5455 18.7249C60.5455 19.4749 60.7039 20.1499 61.0205 20.75C61.3372 21.35 61.7705 21.8166 62.3205 22.15C62.8705 22.4833 63.5039 22.65 64.2206 22.65C64.9539 22.65 65.5872 22.4833 66.1206 22.15C66.6539 21.8166 67.0956 21.3833 67.4456 20.85ZM82.142 21.075L83.8921 23.1C83.2587 23.8167 82.4421 24.3833 81.442 24.8C80.4587 25.2 79.367 25.4 78.167 25.4C76.717 25.4 75.442 25.1167 74.342 24.55C73.2419 23.9833 72.3836 23.2 71.7669 22.2C71.1503 21.2 70.8419 20.0416 70.8419 18.7249C70.8419 17.4082 71.1336 16.2499 71.7169 15.2499C72.3169 14.2332 73.1253 13.4415 74.142 12.8749C75.1753 12.3082 76.3337 12.0249 77.617 12.0249C78.867 12.0249 79.9754 12.3082 80.942 12.8749C81.9254 13.4249 82.6921 14.1915 83.2421 15.1749C83.7921 16.1582 84.0671 17.2999 84.0671 18.5999V18.7499H80.842V18.3999C80.842 17.6333 80.7004 16.9666 80.417 16.3999C80.1504 15.8332 79.7754 15.3916 79.292 15.0749C78.8253 14.7582 78.267 14.5999 77.617 14.5999C76.9337 14.5999 76.3337 14.7666 75.817 15.0999C75.3003 15.4166 74.892 15.8832 74.592 16.4999C74.3086 17.0999 74.167 17.8166 74.167 18.6499C74.167 19.5333 74.342 20.2916 74.692 20.925C75.0586 21.5416 75.5503 22.0166 76.167 22.35C76.8003 22.6666 77.5253 22.825 78.342 22.825C79.842 22.825 81.1087 22.2416 82.142 21.075ZM84.0671 19.7249H72.9669V17.6249H83.6671L84.0671 18.5999V19.7249Z" fill="currentColor"/>
</svg>
