<svg  viewBox="0 0 24 24" fill="none" xmlns="http://www.w3.org/2000/svg">
<path d="M10.7178 12L10.4938 11.776L4.31602 5.59826L3.10938 4.3916V19.6084L7.72643 14.9985L10.7178 12Z" fill="currentColor"/>
<path d="M11.4477 12.7224L5.81913 18.351L3.26855 20.9016C3.55757 21.5591 4.21509 21.9999 4.95208 21.9999C5.28445 21.9999 5.60237 21.9132 5.88416 21.747L5.91306 21.7325L15.1327 16.4146L14.02 15.3019L11.4405 12.7224H11.4477Z" fill="currentColor"/>
<path d="M19.9372 10.4032L19.901 10.3815L16.0282 8.1344L12.1626 11.9928L16.0427 15.8728L19.9227 13.633C20.5224 13.3078 20.8909 12.6864 20.8909 12.0145C20.8909 11.3425 20.5224 10.7211 19.9299 10.4032H19.9372Z" fill="currentColor"/>
<path d="M11.4477 11.2775L15.1182 7.60694L5.89861 2.26012C5.60959 2.08671 5.28445 2 4.94485 2C4.21509 2 3.55757 2.44075 3.26855 3.09827L7.16306 6.99278L11.4477 11.2775Z" fill="currentColor"/>
</svg>
