<svg viewBox="0 0 53 52" fill="none" xmlns="http://www.w3.org/2000/svg">
<rect x="1.5999" y="1.19731" width="49.6" height="49.6" rx="24.6592" stroke="#6F00FB" stroke-width="2.4"/>
<path d="M19.7998 32.0812L21.8878 30.0172C22.4478 30.7372 23.0878 31.2972 23.8078 31.6972C24.5438 32.0812 25.3678 32.2732 26.2798 32.2732C27.2878 32.2732 28.1118 32.0332 28.7518 31.5532C29.3918 31.0572 29.7118 30.3932 29.7118 29.5612C29.7118 29.0332 29.5598 28.5772 29.2558 28.1932C28.9678 27.8092 28.5678 27.5212 28.0558 27.3292C27.5438 27.1212 26.9438 27.0172 26.2558 27.0172H24.6718V24.3772H26.2558C26.8478 24.3772 27.3598 24.2812 27.7918 24.0892C28.2398 23.8972 28.5918 23.6332 28.8478 23.2972C29.1038 22.9452 29.2318 22.5532 29.2318 22.1212C29.2318 21.3692 28.9678 20.7852 28.4398 20.3692C27.9118 19.9372 27.2318 19.7212 26.3998 19.7212C25.5678 19.7212 24.8158 19.9212 24.1438 20.3212C23.4718 20.7052 22.8798 21.2572 22.3678 21.9772L20.2798 19.9132C21.0798 18.9852 22.0078 18.2732 23.0638 17.7772C24.1198 17.2812 25.2638 17.0332 26.4958 17.0332C27.6958 17.0332 28.7438 17.2492 29.6398 17.6812C30.5518 18.0972 31.2558 18.6732 31.7518 19.4092C32.2638 20.1292 32.5198 20.9372 32.5198 21.8332C32.5198 22.6332 32.2798 23.3452 31.7998 23.9692C31.3198 24.5932 30.6478 25.0812 29.7838 25.4332C28.9198 25.7692 27.9118 25.9372 26.7598 25.9372L27.3118 25.0492C28.4318 25.0492 29.4158 25.2492 30.2638 25.6492C31.1278 26.0492 31.7998 26.6012 32.2798 27.3052C32.7598 27.9932 32.9998 28.8012 32.9998 29.7292C32.9998 30.7052 32.7198 31.5932 32.1598 32.3932C31.5998 33.1772 30.8238 33.8012 29.8318 34.2652C28.8398 34.7292 27.6878 34.9612 26.3758 34.9612C25.0798 34.9612 23.8638 34.7132 22.7278 34.2172C21.6078 33.7212 20.6318 33.0092 19.7998 32.0812Z" fill="#6F00FB"/>
</svg>
